<svg xmlns="http://www.w3.org/2000/svg" xmlns:xlink="http://www.w3.org/1999/xlink" width="518" zoomAndPan="magnify" viewBox="0 0 388.5 89.999999" height="120" preserveAspectRatio="xMidYMid meet" version="1.0"><defs><g/><clipPath id="6c82c61bc1"><path d="M 41 40 L 93 40 L 93 89.941406 L 41 89.941406 Z M 41 40 " clip-rule="nonzero"/></clipPath><clipPath id="090f9bd5f5"><path d="M 40 39 L 93.121094 39 L 93.121094 89.941406 L 40 89.941406 Z M 40 39 " clip-rule="nonzero"/></clipPath><clipPath id="6321f217d6"><path d="M 0 0.0585938 L 53 0.0585938 L 53 53 L 0 53 Z M 0 0.0585938 " clip-rule="nonzero"/></clipPath><clipPath id="4773d5cd40"><path d="M 0 0.0585938 L 54 0.0585938 L 54 54 L 0 54 Z M 0 0.0585938 " clip-rule="nonzero"/></clipPath><clipPath id="9aa50fee44"><path d="M 18 54 L 56 54 L 56 89.941406 L 18 89.941406 Z M 18 54 " clip-rule="nonzero"/></clipPath><clipPath id="23e13ef9bb"><path d="M 17 53 L 57 53 L 57 89.941406 L 17 89.941406 Z M 17 53 " clip-rule="nonzero"/></clipPath><clipPath id="cc28d262dc"><path d="M 53 15 L 93.121094 15 L 93.121094 56 L 53 56 Z M 53 15 " clip-rule="nonzero"/></clipPath></defs><g clip-path="url(#6c82c61bc1)"><path fill="#533483" d="M 46.382812 67.425781 C 47.066406 67.425781 47.710938 67.589844 48.296875 67.886719 L 48.296875 67.882812 L 48.308594 67.894531 C 48.726562 68.105469 49.113281 68.386719 49.449219 68.71875 C 52.761719 70.765625 54.394531 68.480469 54.832031 67.675781 L 54.832031 53.992188 L 68.269531 53.992188 C 68.269531 53.992188 72.007812 52.433594 69.5625 48.476562 C 69.226562 48.136719 68.953125 47.753906 68.738281 47.335938 L 68.730469 47.324219 C 68.4375 46.738281 68.269531 46.09375 68.269531 45.414062 C 68.269531 42.847656 70.59375 40.765625 73.460938 40.765625 C 76.332031 40.765625 78.65625 42.847656 78.65625 45.414062 C 78.65625 46.09375 78.484375 46.738281 78.1875 47.324219 L 78.191406 47.324219 L 78.183594 47.335938 C 77.96875 47.753906 77.691406 48.136719 77.355469 48.476562 C 74.914062 52.433594 78.65625 53.992188 78.65625 53.992188 L 92.085938 53.992188 L 92.085938 91.242188 L 54.832031 91.242188 L 54.832031 77.554688 C 54.394531 76.757812 52.761719 74.464844 49.449219 76.511719 C 49.113281 76.847656 48.726562 77.128906 48.308594 77.335938 L 48.296875 77.347656 L 48.296875 77.34375 C 47.710938 77.640625 47.066406 77.8125 46.382812 77.8125 C 43.816406 77.8125 41.738281 75.484375 41.738281 72.617188 C 41.738281 69.75 43.816406 67.425781 46.382812 67.425781 " fill-opacity="1" fill-rule="nonzero"/></g><g clip-path="url(#090f9bd5f5)"><path fill="#ffffff" d="M 46.382812 67.425781 L 46.382812 66.394531 C 47.238281 66.390625 48.042969 66.605469 48.761719 66.96875 L 48.296875 67.886719 L 47.402344 67.375 L 47.402344 67.371094 C 47.554688 67.109375 47.8125 66.925781 48.109375 66.867188 C 48.402344 66.816406 48.710938 66.894531 48.945312 67.082031 L 48.960938 67.09375 L 48.308594 67.894531 L 48.777344 66.976562 C 49.292969 67.238281 49.761719 67.582031 50.175781 67.984375 L 49.449219 68.71875 L 49.992188 67.84375 C 50.847656 68.367188 51.480469 68.515625 51.949219 68.519531 C 52.230469 68.515625 52.464844 68.46875 52.675781 68.378906 C 52.988281 68.257812 53.257812 68.042969 53.46875 67.8125 C 53.6875 67.582031 53.84375 67.335938 53.9375 67.179688 L 54.832031 67.675781 L 53.804688 67.675781 L 53.804688 53.992188 C 53.804688 53.71875 53.914062 53.453125 54.105469 53.261719 C 54.296875 53.070312 54.5625 52.960938 54.832031 52.960938 L 68.269531 52.960938 L 68.269531 53.992188 L 67.871094 53.039062 L 68.082031 53.546875 L 67.863281 53.042969 L 67.871094 53.039062 L 68.082031 53.546875 L 67.863281 53.042969 C 67.863281 53.042969 67.890625 53.03125 67.933594 53.003906 C 68.09375 52.925781 68.496094 52.691406 68.8125 52.347656 C 68.96875 52.171875 69.105469 51.976562 69.203125 51.753906 C 69.300781 51.527344 69.359375 51.285156 69.359375 50.976562 C 69.359375 50.503906 69.214844 49.875 68.6875 49.019531 L 69.5625 48.476562 L 68.828125 49.199219 C 68.425781 48.789062 68.082031 48.320312 67.820312 47.808594 L 68.738281 47.335938 L 67.953125 48 L 67.9375 47.988281 C 67.738281 47.746094 67.65625 47.421875 67.71875 47.113281 C 67.78125 46.804688 67.984375 46.546875 68.265625 46.402344 L 68.269531 46.402344 L 68.730469 47.324219 L 67.8125 47.789062 C 67.449219 47.074219 67.234375 46.265625 67.238281 45.414062 C 67.234375 43.808594 67.96875 42.367188 69.101562 41.359375 C 70.234375 40.347656 71.773438 39.734375 73.460938 39.734375 C 75.144531 39.734375 76.683594 40.347656 77.816406 41.359375 C 78.949219 42.367188 79.683594 43.808594 79.683594 45.414062 C 79.683594 46.265625 79.46875 47.074219 79.113281 47.785156 L 78.1875 47.324219 L 78.761719 46.46875 L 78.765625 46.46875 C 79.003906 46.628906 79.160156 46.875 79.210938 47.160156 C 79.253906 47.441406 79.183594 47.726562 79.007812 47.953125 L 79 47.96875 L 78.183594 47.335938 L 79.101562 47.808594 C 78.835938 48.320312 78.492188 48.789062 78.09375 49.199219 L 77.355469 48.476562 L 78.234375 49.019531 C 77.707031 49.875 77.558594 50.503906 77.558594 50.976562 C 77.558594 51.335938 77.644531 51.617188 77.773438 51.867188 C 77.96875 52.246094 78.292969 52.558594 78.582031 52.761719 C 78.722656 52.863281 78.851562 52.941406 78.941406 52.984375 C 78.984375 53.003906 79.019531 53.027344 79.039062 53.035156 L 79.058594 53.042969 L 78.792969 53.652344 L 79.050781 53.039062 L 79.058594 53.042969 L 78.792969 53.652344 L 79.050781 53.039062 L 78.65625 53.992188 L 78.65625 52.960938 L 92.085938 52.960938 C 92.359375 52.960938 92.621094 53.070312 92.816406 53.261719 C 93.007812 53.453125 93.117188 53.71875 93.117188 53.992188 L 93.117188 91.242188 C 93.117188 91.511719 93.007812 91.78125 92.816406 91.96875 C 92.621094 92.164062 92.359375 92.269531 92.085938 92.269531 L 54.832031 92.269531 C 54.5625 92.269531 54.296875 92.164062 54.105469 91.96875 C 53.914062 91.78125 53.804688 91.511719 53.804688 91.242188 L 53.804688 77.554688 L 54.832031 77.554688 L 53.9375 78.054688 C 53.816406 77.84375 53.574219 77.476562 53.238281 77.195312 C 53.070312 77.058594 52.882812 76.9375 52.675781 76.851562 C 52.464844 76.769531 52.230469 76.714844 51.949219 76.714844 C 51.480469 76.714844 50.847656 76.863281 49.992188 77.390625 L 49.449219 76.511719 L 50.175781 77.246094 C 49.761719 77.648438 49.292969 77.996094 48.777344 78.253906 L 48.308594 77.335938 L 48.988281 78.117188 L 48.976562 78.125 C 48.742188 78.328125 48.433594 78.417969 48.125 78.367188 C 47.820312 78.3125 47.558594 78.128906 47.402344 77.859375 L 47.402344 77.855469 L 48.296875 77.34375 L 48.761719 78.269531 C 48.046875 78.625 47.238281 78.839844 46.382812 78.839844 C 44.78125 78.839844 43.339844 78.109375 42.332031 76.972656 C 41.316406 75.839844 40.707031 74.300781 40.707031 72.617188 C 40.707031 70.929688 41.316406 69.390625 42.332031 68.257812 C 43.339844 67.125 44.785156 66.390625 46.382812 66.394531 L 46.382812 68.453125 C 45.421875 68.453125 44.539062 68.882812 43.867188 69.628906 C 43.199219 70.375 42.765625 71.429688 42.765625 72.617188 C 42.765625 73.796875 43.199219 74.855469 43.867188 75.601562 C 44.539062 76.347656 45.421875 76.78125 46.382812 76.78125 C 46.894531 76.78125 47.382812 76.65625 47.832031 76.425781 C 48.320312 76.179688 48.917969 76.359375 49.191406 76.835938 L 49.191406 76.839844 L 48.296875 77.347656 L 47.621094 76.574219 L 47.632812 76.5625 C 47.699219 76.503906 47.765625 76.460938 47.84375 76.421875 C 48.164062 76.257812 48.460938 76.042969 48.726562 75.78125 C 48.78125 75.726562 48.84375 75.675781 48.910156 75.636719 C 50.003906 74.960938 51.023438 74.652344 51.949219 74.65625 C 52.503906 74.652344 53.007812 74.761719 53.445312 74.945312 C 54.105469 75.210938 54.605469 75.621094 54.972656 76.011719 C 55.34375 76.40625 55.585938 76.789062 55.734375 77.058594 C 55.820312 77.210938 55.863281 77.378906 55.863281 77.554688 L 55.863281 90.210938 L 91.058594 90.210938 L 91.058594 55.019531 L 78.65625 55.019531 C 78.519531 55.019531 78.386719 54.992188 78.257812 54.941406 C 78.191406 54.914062 77.566406 54.652344 76.894531 54.039062 C 76.5625 53.734375 76.214844 53.335938 75.949219 52.820312 C 75.679688 52.308594 75.5 51.679688 75.5 50.976562 C 75.5 50.050781 75.804688 49.03125 76.484375 47.933594 C 76.519531 47.871094 76.570312 47.8125 76.625 47.753906 C 76.886719 47.484375 77.101562 47.1875 77.265625 46.867188 C 77.292969 46.8125 77.332031 46.757812 77.367188 46.707031 L 77.382812 46.695312 L 78.191406 47.324219 L 77.625 48.179688 L 77.621094 48.179688 C 77.183594 47.890625 77.035156 47.324219 77.269531 46.859375 C 77.5 46.40625 77.625 45.925781 77.625 45.414062 C 77.625 44.445312 77.191406 43.566406 76.445312 42.890625 C 75.699219 42.222656 74.644531 41.796875 73.460938 41.796875 C 72.277344 41.796875 71.222656 42.222656 70.476562 42.890625 C 69.730469 43.566406 69.296875 44.445312 69.296875 45.414062 C 69.296875 45.925781 69.421875 46.40625 69.648438 46.859375 C 69.773438 47.101562 69.796875 47.386719 69.707031 47.644531 C 69.625 47.910156 69.4375 48.121094 69.191406 48.242188 L 69.1875 48.246094 L 68.730469 47.324219 L 69.515625 46.664062 L 69.523438 46.671875 C 69.574219 46.730469 69.621094 46.800781 69.65625 46.867188 C 69.816406 47.1875 70.035156 47.488281 70.296875 47.753906 C 70.347656 47.808594 70.398438 47.871094 70.441406 47.933594 C 71.121094 49.03125 71.425781 50.050781 71.425781 50.976562 C 71.425781 51.679688 71.242188 52.308594 70.976562 52.820312 C 70.570312 53.589844 70 54.101562 69.539062 54.433594 C 69.074219 54.765625 68.714844 54.917969 68.664062 54.941406 C 68.535156 54.992188 68.40625 55.019531 68.269531 55.019531 L 55.863281 55.019531 L 55.863281 67.675781 C 55.863281 67.851562 55.820312 68.023438 55.734375 68.175781 C 55.539062 68.527344 55.171875 69.097656 54.5625 69.613281 C 54.257812 69.871094 53.886719 70.109375 53.445312 70.292969 C 53.007812 70.46875 52.503906 70.582031 51.949219 70.582031 C 51.023438 70.582031 50 70.273438 48.910156 69.597656 C 48.84375 69.554688 48.78125 69.503906 48.726562 69.453125 C 48.460938 69.1875 48.160156 68.972656 47.84375 68.808594 C 47.777344 68.777344 47.71875 68.738281 47.660156 68.695312 L 47.648438 68.679688 L 48.296875 67.882812 L 49.191406 68.394531 L 49.191406 68.398438 C 48.917969 68.871094 48.320312 69.050781 47.832031 68.804688 C 47.382812 68.578125 46.894531 68.453125 46.382812 68.453125 L 46.382812 67.425781 " fill-opacity="1" fill-rule="nonzero"/></g><g clip-path="url(#6321f217d6)"><path fill="#533483" d="M 44.230469 8.363281 L 40.71875 21.59375 C 40.941406 22.476562 41.925781 25.109375 45.652344 23.980469 C 46.066406 23.746094 46.507812 23.574219 46.96875 23.476562 L 46.980469 23.472656 C 47.625 23.335938 48.292969 23.339844 48.945312 23.515625 C 51.429688 24.175781 52.839844 26.957031 52.105469 29.730469 C 51.371094 32.5 48.761719 34.210938 46.28125 33.554688 C 45.621094 33.378906 45.042969 33.054688 44.554688 32.617188 L 44.550781 32.617188 L 44.542969 32.605469 C 44.191406 32.292969 43.894531 31.925781 43.652344 31.515625 C 40.980469 28.6875 38.816406 30.480469 38.183594 31.136719 L 34.667969 44.371094 L 21.683594 40.917969 C 21.683594 40.917969 17.664062 41.460938 19.015625 45.914062 C 19.25 46.328125 19.425781 46.773438 19.519531 47.230469 L 19.527344 47.242188 C 19.660156 47.886719 19.660156 48.546875 19.480469 49.210938 C 18.824219 51.691406 16.042969 53.105469 13.269531 52.367188 C 10.496094 51.628906 8.789062 49.023438 9.441406 46.546875 C 9.621094 45.882812 9.949219 45.304688 10.382812 44.816406 L 10.394531 44.804688 C 10.707031 44.457031 11.074219 44.15625 11.484375 43.914062 C 14.863281 40.71875 11.644531 38.253906 11.644531 38.253906 L -1.335938 34.804688 L 8.226562 -1.199219 L 44.230469 8.363281 " fill-opacity="1" fill-rule="nonzero"/></g><g clip-path="url(#4773d5cd40)"><path fill="#ffffff" d="M 44.230469 8.363281 L 45.226562 8.628906 L 41.710938 21.859375 L 40.71875 21.59375 L 41.714844 21.339844 C 41.78125 21.617188 41.96875 22.140625 42.308594 22.527344 C 42.480469 22.726562 42.679688 22.894531 42.9375 23.019531 C 43.195312 23.140625 43.515625 23.226562 43.964844 23.226562 C 44.339844 23.226562 44.796875 23.167969 45.355469 22.996094 L 45.652344 23.980469 L 45.144531 23.089844 C 45.644531 22.804688 46.183594 22.589844 46.75 22.46875 L 46.96875 23.476562 L 46.566406 22.527344 L 46.578125 22.519531 C 46.894531 22.386719 47.261719 22.421875 47.550781 22.609375 C 47.839844 22.800781 48.011719 23.125 48.011719 23.472656 L 46.980469 23.472656 L 46.773438 22.464844 C 47.132812 22.386719 47.503906 22.347656 47.882812 22.347656 C 48.324219 22.347656 48.769531 22.402344 49.214844 22.519531 C 50.480469 22.855469 51.527344 23.644531 52.234375 24.660156 C 52.941406 25.683594 53.332031 26.9375 53.332031 28.25 C 53.332031 28.824219 53.261719 29.40625 53.105469 29.992188 C 52.734375 31.386719 51.957031 32.5625 50.949219 33.394531 C 49.941406 34.226562 48.683594 34.726562 47.359375 34.726562 C 46.914062 34.726562 46.460938 34.667969 46.019531 34.550781 C 45.195312 34.332031 44.46875 33.917969 43.867188 33.386719 L 44.554688 32.617188 L 45.285156 33.347656 L 45.28125 33.347656 C 45.070312 33.554688 44.777344 33.667969 44.480469 33.648438 C 44.179688 33.625 43.910156 33.472656 43.726562 33.234375 L 43.71875 33.222656 L 44.542969 32.605469 L 43.855469 33.371094 C 43.421875 32.988281 43.058594 32.535156 42.765625 32.039062 L 43.652344 31.515625 L 42.902344 32.222656 C 42.421875 31.714844 41.992188 31.410156 41.625 31.234375 C 41.257812 31.054688 40.957031 31.003906 40.683594 30.996094 C 40.292969 30.996094 39.9375 31.121094 39.628906 31.304688 C 39.316406 31.480469 39.0625 31.710938 38.921875 31.851562 L 38.183594 31.136719 L 39.179688 31.402344 L 35.660156 44.632812 C 35.515625 45.183594 34.953125 45.511719 34.402344 45.363281 L 21.417969 41.914062 L 21.683594 40.917969 L 21.820312 41.941406 C 21.75 41.949219 21.148438 42.074219 20.660156 42.421875 C 20.417969 42.589844 20.203125 42.800781 20.042969 43.082031 C 19.886719 43.363281 19.769531 43.707031 19.769531 44.230469 C 19.769531 44.597656 19.832031 45.058594 20 45.617188 L 19.015625 45.914062 L 19.910156 45.40625 C 20.199219 45.90625 20.410156 46.445312 20.527344 47.011719 L 19.519531 47.230469 L 20.472656 46.824219 L 20.476562 46.84375 C 20.601562 47.136719 20.582031 47.464844 20.429688 47.742188 C 20.277344 48.015625 20.007812 48.207031 19.695312 48.261719 L 19.527344 47.242188 L 20.53125 47.03125 C 20.609375 47.394531 20.652344 47.769531 20.652344 48.144531 C 20.652344 48.585938 20.59375 49.035156 20.480469 49.476562 C 20.140625 50.742188 19.355469 51.785156 18.335938 52.496094 C 17.316406 53.203125 16.0625 53.59375 14.75 53.59375 C 14.175781 53.59375 13.589844 53.519531 13.007812 53.363281 C 11.613281 52.992188 10.433594 52.21875 9.601562 51.210938 C 8.769531 50.199219 8.273438 48.945312 8.273438 47.621094 C 8.273438 47.175781 8.328125 46.722656 8.449219 46.28125 C 8.667969 45.453125 9.078125 44.730469 9.609375 44.132812 L 10.382812 44.816406 L 9.652344 45.542969 L 9.652344 45.539062 C 9.445312 45.335938 9.339844 45.050781 9.351562 44.761719 C 9.367188 44.46875 9.503906 44.199219 9.730469 44.015625 L 9.742188 44.003906 L 10.394531 44.804688 L 9.628906 44.117188 C 10.015625 43.6875 10.464844 43.320312 10.957031 43.027344 L 11.484375 43.914062 L 10.777344 43.167969 C 11.285156 42.6875 11.589844 42.257812 11.765625 41.890625 C 11.941406 41.523438 11.996094 41.21875 12 40.941406 C 12 40.683594 11.941406 40.441406 11.855469 40.214844 C 11.71875 39.875 11.503906 39.566406 11.316406 39.359375 C 11.222656 39.257812 11.140625 39.175781 11.082031 39.125 L 11.023438 39.074219 L 11.011719 39.066406 L 11.265625 38.746094 L 11.019531 39.074219 L 11.011719 39.066406 L 11.265625 38.746094 L 11.019531 39.074219 L 11.644531 38.253906 L 11.382812 39.25 L -1.601562 35.800781 C -1.867188 35.730469 -2.09375 35.554688 -2.230469 35.320312 C -2.363281 35.085938 -2.402344 34.804688 -2.332031 34.539062 L 7.230469 -1.464844 C 7.300781 -1.726562 7.476562 -1.953125 7.707031 -2.089844 C 7.941406 -2.226562 8.226562 -2.265625 8.492188 -2.195312 L 44.496094 7.367188 C 45.046875 7.515625 45.371094 8.078125 45.226562 8.628906 L 44.230469 8.363281 L 43.964844 9.359375 L 8.957031 0.0585938 L -0.078125 34.074219 L 11.910156 37.261719 C 12.042969 37.292969 12.164062 37.351562 12.273438 37.4375 C 12.320312 37.476562 12.734375 37.792969 13.167969 38.375 C 13.378906 38.667969 13.597656 39.027344 13.773438 39.457031 C 13.941406 39.886719 14.0625 40.390625 14.0625 40.941406 C 14.0625 41.523438 13.925781 42.160156 13.621094 42.789062 C 13.316406 43.414062 12.847656 44.046875 12.195312 44.664062 C 12.136719 44.710938 12.074219 44.761719 12.007812 44.800781 C 11.683594 44.992188 11.398438 45.222656 11.160156 45.492188 C 11.117188 45.535156 11.089844 45.566406 11.046875 45.601562 L 11.03125 45.613281 L 10.382812 44.816406 L 11.109375 44.085938 C 11.5 44.472656 11.515625 45.089844 11.152344 45.5 C 10.8125 45.878906 10.570312 46.3125 10.4375 46.804688 C 10.371094 47.082031 10.332031 47.351562 10.332031 47.621094 C 10.332031 48.421875 10.632812 49.21875 11.191406 49.898438 C 11.75 50.570312 12.558594 51.113281 13.535156 51.375 C 13.945312 51.480469 14.351562 51.535156 14.75 51.535156 C 15.660156 51.535156 16.503906 51.261719 17.160156 50.804688 C 17.8125 50.34375 18.285156 49.714844 18.488281 48.945312 C 18.558594 48.679688 18.59375 48.417969 18.59375 48.144531 C 18.59375 47.914062 18.566406 47.6875 18.519531 47.457031 C 18.460938 47.179688 18.515625 46.894531 18.675781 46.664062 C 18.835938 46.429688 19.078125 46.273438 19.359375 46.230469 L 19.527344 47.242188 L 18.578125 47.640625 L 18.570312 47.628906 C 18.550781 47.570312 18.527344 47.5 18.515625 47.445312 C 18.441406 47.09375 18.308594 46.753906 18.121094 46.425781 C 18.085938 46.359375 18.050781 46.28125 18.027344 46.210938 C 17.8125 45.492188 17.710938 44.832031 17.710938 44.230469 C 17.707031 43.328125 17.945312 42.550781 18.324219 41.941406 C 18.605469 41.488281 18.953125 41.132812 19.308594 40.859375 C 19.839844 40.449219 20.378906 40.222656 20.796875 40.082031 C 21.207031 39.949219 21.5 39.90625 21.546875 39.902344 C 21.683594 39.878906 21.816406 39.886719 21.949219 39.925781 L 33.933594 43.109375 L 37.183594 30.875 C 37.230469 30.707031 37.320312 30.554688 37.441406 30.425781 C 37.675781 30.183594 38.058594 29.824219 38.601562 29.515625 C 39.136719 29.207031 39.847656 28.9375 40.683594 28.9375 C 41.261719 28.9375 41.894531 29.074219 42.523438 29.378906 C 43.15625 29.683594 43.78125 30.152344 44.402344 30.808594 C 44.453125 30.863281 44.496094 30.925781 44.535156 30.988281 C 44.730469 31.316406 44.964844 31.597656 45.230469 31.839844 C 45.277344 31.878906 45.328125 31.9375 45.367188 31.988281 L 45.375 32 L 44.550781 32.617188 L 43.824219 31.890625 L 43.824219 31.886719 C 44.214844 31.5 44.832031 31.484375 45.238281 31.847656 C 45.617188 32.183594 46.050781 32.425781 46.550781 32.558594 L 46.546875 32.558594 C 46.820312 32.628906 47.09375 32.667969 47.359375 32.667969 C 48.160156 32.667969 48.960938 32.367188 49.632812 31.804688 C 50.308594 31.25 50.851562 30.441406 51.109375 29.464844 C 51.222656 29.054688 51.269531 28.644531 51.269531 28.25 C 51.269531 27.339844 51.003906 26.496094 50.546875 25.839844 C 50.082031 25.183594 49.453125 24.714844 48.683594 24.507812 C 48.417969 24.4375 48.152344 24.40625 47.882812 24.40625 C 47.65625 24.40625 47.425781 24.429688 47.195312 24.480469 C 46.894531 24.542969 46.574219 24.46875 46.335938 24.269531 C 46.089844 24.082031 45.953125 23.78125 45.953125 23.472656 L 46.980469 23.472656 L 47.386719 24.417969 L 47.367188 24.425781 C 47.316406 24.449219 47.242188 24.46875 47.183594 24.484375 C 46.832031 24.558594 46.492188 24.691406 46.160156 24.875 C 46.101562 24.914062 46.027344 24.945312 45.953125 24.972656 C 45.230469 25.183594 44.570312 25.289062 43.964844 25.289062 C 43.238281 25.289062 42.589844 25.136719 42.046875 24.875 C 41.226562 24.480469 40.679688 23.867188 40.328125 23.300781 C 39.976562 22.730469 39.804688 22.191406 39.71875 21.84375 C 39.675781 21.675781 39.675781 21.496094 39.722656 21.328125 L 43.238281 8.101562 L 44.230469 8.363281 L 43.964844 9.359375 L 44.230469 8.363281 " fill-opacity="1" fill-rule="nonzero"/></g><g clip-path="url(#9aa50fee44)"><path fill="#533483" d="M 31.472656 54.046875 C 31.472656 54.046875 35.207031 55.601562 32.765625 59.550781 C 32.429688 59.890625 32.15625 60.273438 31.941406 60.6875 L 31.933594 60.703125 C 31.640625 61.28125 31.472656 61.929688 31.472656 62.613281 C 31.472656 65.175781 33.792969 67.25 36.65625 67.25 C 39.519531 67.25 41.839844 65.175781 41.839844 62.613281 C 41.839844 61.929688 41.671875 61.28125 41.378906 60.703125 L 41.382812 60.703125 L 41.371094 60.6875 C 41.160156 60.273438 40.878906 59.890625 40.546875 59.550781 C 38.109375 55.601562 41.839844 54.046875 41.839844 54.046875 L 55.253906 54.046875 L 55.253906 67.457031 C 55.253906 67.457031 53.699219 71.195312 49.75 68.75 C 49.414062 68.417969 49.027344 68.140625 48.613281 67.925781 L 48.601562 67.917969 L 48.601562 67.921875 C 48.015625 67.625 47.371094 67.457031 46.6875 67.457031 C 44.125 67.457031 42.050781 69.78125 42.050781 72.644531 C 42.050781 75.507812 44.125 77.832031 46.6875 77.832031 C 47.371094 77.832031 48.015625 77.664062 48.601562 77.367188 L 48.601562 77.371094 L 48.613281 77.363281 C 49.027344 77.148438 49.414062 76.871094 49.75 76.539062 C 53.699219 74.09375 55.253906 77.832031 55.253906 77.832031 L 55.253906 91.242188 L 18.0625 91.242188 L 18.0625 54.046875 L 31.472656 54.046875 " fill-opacity="1" fill-rule="nonzero"/></g><g clip-path="url(#23e13ef9bb)"><path fill="#ffffff" d="M 31.472656 54.046875 L 31.867188 53.097656 C 31.933594 53.125 32.558594 53.386719 33.230469 53.996094 C 33.5625 54.300781 33.910156 54.699219 34.171875 55.214844 C 34.445312 55.726562 34.625 56.351562 34.621094 57.054688 C 34.621094 57.976562 34.320312 59 33.640625 60.089844 C 33.601562 60.15625 33.550781 60.21875 33.5 60.273438 C 33.238281 60.539062 33.019531 60.835938 32.859375 61.15625 C 32.824219 61.226562 32.789062 61.28125 32.738281 61.339844 L 32.730469 61.351562 L 31.933594 60.703125 L 32.257812 59.726562 C 32.542969 59.820312 32.773438 60.035156 32.886719 60.308594 C 33 60.585938 32.988281 60.898438 32.851562 61.167969 C 32.625 61.621094 32.5 62.097656 32.5 62.613281 C 32.5 63.578125 32.933594 64.453125 33.675781 65.121094 C 34.421875 65.792969 35.476562 66.222656 36.65625 66.222656 C 37.839844 66.222656 38.890625 65.792969 39.636719 65.121094 C 40.382812 64.453125 40.808594 63.578125 40.808594 62.613281 C 40.808594 62.101562 40.6875 61.621094 40.460938 61.167969 C 40.320312 60.886719 40.3125 60.558594 40.445312 60.273438 C 40.570312 59.988281 40.828125 59.777344 41.128906 59.703125 L 41.132812 59.699219 L 41.382812 60.703125 L 40.582031 61.351562 L 40.570312 61.339844 C 40.527344 61.28125 40.488281 61.226562 40.457031 61.160156 C 40.292969 60.835938 40.078125 60.539062 39.8125 60.273438 C 39.757812 60.21875 39.710938 60.15625 39.671875 60.089844 C 38.992188 59 38.6875 57.976562 38.691406 57.054688 C 38.6875 56.351562 38.871094 55.726562 39.136719 55.214844 C 39.542969 54.445312 40.109375 53.933594 40.570312 53.601562 C 41.03125 53.269531 41.394531 53.117188 41.449219 53.097656 C 41.578125 53.042969 41.703125 53.019531 41.839844 53.019531 L 55.253906 53.019531 C 55.527344 53.019531 55.789062 53.125 55.984375 53.320312 C 56.171875 53.507812 56.285156 53.777344 56.285156 54.046875 L 56.285156 67.457031 C 56.285156 67.59375 56.257812 67.726562 56.207031 67.851562 C 56.175781 67.921875 55.917969 68.546875 55.308594 69.21875 C 55.003906 69.550781 54.601562 69.898438 54.089844 70.164062 C 53.578125 70.433594 52.949219 70.613281 52.246094 70.609375 C 51.324219 70.613281 50.300781 70.308594 49.210938 69.628906 C 49.144531 69.59375 49.082031 69.542969 49.027344 69.488281 C 48.761719 69.226562 48.464844 69.011719 48.144531 68.847656 C 48.078125 68.8125 48.019531 68.777344 47.960938 68.726562 L 47.949219 68.71875 L 48.601562 67.917969 L 49.578125 68.246094 L 49.578125 68.25 C 49.480469 68.527344 49.269531 68.757812 48.992188 68.875 C 48.714844 68.984375 48.402344 68.972656 48.136719 68.84375 C 47.683594 68.613281 47.199219 68.492188 46.6875 68.488281 C 45.726562 68.492188 44.847656 68.921875 44.175781 69.667969 C 43.511719 70.410156 43.082031 71.460938 43.082031 72.644531 C 43.082031 73.828125 43.511719 74.882812 44.175781 75.628906 C 44.847656 76.371094 45.726562 76.796875 46.6875 76.800781 C 47.199219 76.800781 47.683594 76.679688 48.136719 76.445312 C 48.410156 76.3125 48.734375 76.304688 49.011719 76.421875 C 49.292969 76.546875 49.507812 76.789062 49.589844 77.085938 L 48.601562 77.371094 L 47.949219 76.570312 L 47.960938 76.5625 C 48.019531 76.511719 48.078125 76.476562 48.144531 76.441406 C 48.460938 76.28125 48.761719 76.0625 49.027344 75.800781 C 49.082031 75.75 49.144531 75.699219 49.210938 75.660156 C 50.300781 74.980469 51.324219 74.679688 52.246094 74.679688 C 52.949219 74.675781 53.578125 74.855469 54.089844 75.128906 C 54.859375 75.527344 55.371094 76.101562 55.699219 76.558594 C 56.03125 77.019531 56.183594 77.386719 56.207031 77.4375 C 56.257812 77.5625 56.285156 77.695312 56.285156 77.832031 L 56.285156 91.242188 C 56.285156 91.511719 56.171875 91.78125 55.984375 91.96875 C 55.789062 92.164062 55.527344 92.269531 55.253906 92.269531 L 18.0625 92.269531 C 17.789062 92.269531 17.519531 92.164062 17.332031 91.96875 C 17.136719 91.78125 17.03125 91.511719 17.03125 91.242188 L 17.03125 54.046875 C 17.03125 53.777344 17.136719 53.511719 17.332031 53.320312 C 17.519531 53.125 17.789062 53.019531 18.0625 53.019531 L 31.472656 53.019531 C 31.605469 53.019531 31.738281 53.042969 31.867188 53.097656 L 31.472656 54.046875 L 31.472656 55.078125 L 19.089844 55.078125 L 19.089844 90.210938 L 54.222656 90.210938 L 54.222656 77.832031 L 55.253906 77.832031 L 54.300781 78.226562 L 54.8125 78.011719 L 54.304688 78.230469 L 54.300781 78.226562 L 54.8125 78.011719 L 54.304688 78.230469 C 54.304688 78.230469 54.292969 78.210938 54.273438 78.164062 C 54.191406 78 53.960938 77.605469 53.609375 77.292969 C 53.441406 77.132812 53.238281 76.996094 53.015625 76.894531 C 52.792969 76.796875 52.550781 76.738281 52.246094 76.738281 C 51.78125 76.738281 51.148438 76.886719 50.292969 77.410156 L 49.75 76.539062 L 50.476562 77.269531 C 50.0625 77.675781 49.59375 78.015625 49.078125 78.277344 L 48.613281 77.363281 L 49.265625 78.160156 L 49.246094 78.167969 C 48.984375 78.386719 48.617188 78.457031 48.292969 78.355469 C 47.960938 78.25 47.703125 77.984375 47.609375 77.65625 L 47.609375 77.648438 L 48.601562 77.367188 L 49.0625 78.289062 C 48.347656 78.648438 47.542969 78.863281 46.6875 78.863281 C 45.089844 78.863281 43.648438 78.128906 42.644531 77 C 41.628906 75.867188 41.019531 74.324219 41.019531 72.644531 C 41.019531 70.964844 41.628906 69.421875 42.644531 68.292969 C 43.648438 67.160156 45.089844 66.429688 46.6875 66.429688 C 47.542969 66.429688 48.347656 66.640625 49.066406 67 L 48.601562 67.921875 L 47.625 67.59375 C 47.730469 67.273438 47.988281 67.023438 48.3125 66.929688 C 48.636719 66.835938 48.988281 66.90625 49.246094 67.121094 L 49.265625 67.132812 L 48.613281 67.925781 L 49.082031 67.011719 C 49.59375 67.273438 50.0625 67.613281 50.472656 68.019531 L 49.75 68.75 L 50.292969 67.878906 C 51.148438 68.40625 51.78125 68.550781 52.246094 68.550781 C 52.605469 68.550781 52.886719 68.46875 53.136719 68.335938 C 53.511719 68.140625 53.820312 67.816406 54.027344 67.53125 C 54.125 67.386719 54.203125 67.261719 54.25 67.171875 C 54.273438 67.128906 54.289062 67.09375 54.296875 67.074219 L 54.304688 67.058594 L 54.917969 67.316406 L 54.300781 67.0625 L 54.304688 67.058594 L 54.917969 67.316406 L 54.300781 67.0625 L 55.253906 67.457031 L 54.222656 67.457031 L 54.222656 55.078125 L 41.839844 55.078125 L 41.839844 54.046875 L 42.238281 55 L 42.035156 54.503906 L 42.242188 54.996094 L 42.238281 55 L 42.035156 54.503906 L 42.242188 54.996094 C 42.242188 54.996094 42.21875 55.007812 42.175781 55.027344 C 42.011719 55.109375 41.613281 55.339844 41.304688 55.6875 C 41.144531 55.859375 41.007812 56.058594 40.910156 56.28125 C 40.808594 56.507812 40.753906 56.75 40.753906 57.054688 C 40.753906 57.523438 40.902344 58.15625 41.425781 59.007812 L 40.546875 59.550781 L 41.285156 58.832031 C 41.6875 59.238281 42.027344 59.707031 42.289062 60.21875 L 41.371094 60.6875 L 42.167969 60.039062 L 42.183594 60.054688 C 42.40625 60.328125 42.46875 60.691406 42.359375 61.027344 C 42.246094 61.359375 41.972656 61.617188 41.632812 61.703125 L 41.628906 61.703125 L 41.378906 60.703125 L 42.296875 60.238281 C 42.660156 60.953125 42.875 61.761719 42.871094 62.613281 C 42.875 64.210938 42.140625 65.652344 41.007812 66.660156 C 39.878906 67.671875 38.339844 68.277344 36.65625 68.28125 C 34.976562 68.277344 33.4375 67.671875 32.304688 66.660156 C 31.175781 65.652344 30.441406 64.210938 30.441406 62.613281 C 30.441406 61.761719 30.652344 60.953125 31.011719 60.238281 L 31.933594 60.703125 L 31.605469 61.683594 L 31.605469 61.679688 C 31.285156 61.570312 31.039062 61.3125 30.945312 60.988281 C 30.847656 60.664062 30.917969 60.3125 31.132812 60.054688 L 31.140625 60.039062 L 31.941406 60.6875 L 31.023438 60.222656 C 31.285156 59.707031 31.628906 59.238281 32.03125 58.832031 L 32.765625 59.550781 L 31.890625 59.007812 C 32.417969 58.15625 32.5625 57.523438 32.5625 57.054688 C 32.5625 56.695312 32.480469 56.417969 32.347656 56.164062 C 32.15625 55.789062 31.828125 55.476562 31.539062 55.277344 C 31.402344 55.171875 31.269531 55.097656 31.183594 55.054688 C 31.140625 55.027344 31.109375 55.011719 31.085938 55.003906 L 31.070312 54.996094 L 31.328125 54.394531 L 31.074219 55 L 31.070312 54.996094 L 31.328125 54.394531 L 31.074219 55 L 31.472656 54.046875 L 31.472656 55.078125 L 31.472656 54.046875 " fill-opacity="1" fill-rule="nonzero"/></g><path fill="#533483" d="M 78.644531 53.992188 C 78.644531 53.992188 74.910156 52.4375 77.351562 48.488281 C 77.683594 48.144531 77.960938 47.765625 78.175781 47.347656 L 78.183594 47.332031 C 78.476562 46.753906 78.644531 46.105469 78.644531 45.425781 C 78.644531 42.863281 76.324219 40.785156 73.460938 40.785156 C 70.597656 40.785156 68.273438 42.863281 68.273438 45.425781 C 68.273438 46.105469 68.441406 46.753906 68.738281 47.332031 L 68.746094 47.347656 C 68.957031 47.765625 69.238281 48.144531 69.570312 48.488281 C 72.011719 52.4375 68.273438 53.992188 68.273438 53.992188 L 54.863281 53.992188 L 54.863281 40.578125 C 54.863281 40.578125 56.414062 36.839844 60.367188 39.28125 C 60.703125 39.617188 61.085938 39.894531 61.503906 40.105469 L 61.515625 40.121094 L 61.519531 40.113281 C 62.101562 40.40625 62.742188 40.578125 63.425781 40.578125 C 65.988281 40.578125 68.066406 38.257812 68.066406 35.394531 C 68.066406 32.527344 65.988281 30.207031 63.425781 30.207031 C 62.742188 30.207031 62.101562 30.375 61.519531 30.667969 L 61.515625 30.664062 L 61.503906 30.675781 C 61.085938 30.886719 60.703125 31.167969 60.367188 31.5 C 56.414062 33.945312 54.863281 30.207031 54.863281 30.207031 L 54.863281 16.792969 L 92.058594 16.792969 L 92.058594 53.992188 L 78.644531 53.992188 " fill-opacity="1" fill-rule="nonzero"/><g clip-path="url(#cc28d262dc)"><path fill="#ffffff" d="M 78.644531 53.992188 L 78.25 54.941406 C 78.183594 54.914062 77.558594 54.652344 76.886719 54.042969 C 76.558594 53.734375 76.210938 53.335938 75.945312 52.824219 C 75.675781 52.3125 75.492188 51.683594 75.496094 50.984375 C 75.496094 50.054688 75.800781 49.039062 76.476562 47.945312 C 76.511719 47.878906 76.566406 47.820312 76.613281 47.765625 C 76.882812 47.496094 77.097656 47.195312 77.257812 46.878906 C 77.285156 46.824219 77.3125 46.785156 77.347656 46.734375 L 77.359375 46.71875 L 78.183594 47.332031 L 78.015625 48.351562 L 78.011719 48.351562 C 77.691406 48.296875 77.410156 48.089844 77.265625 47.796875 C 77.117188 47.507812 77.117188 47.160156 77.261719 46.871094 C 77.492188 46.417969 77.617188 45.9375 77.617188 45.425781 C 77.617188 44.460938 77.1875 43.582031 76.4375 42.914062 C 75.695312 42.246094 74.640625 41.816406 73.460938 41.816406 C 72.277344 41.816406 71.222656 42.246094 70.480469 42.914062 C 69.734375 43.582031 69.304688 44.460938 69.300781 45.425781 C 69.300781 45.9375 69.429688 46.417969 69.65625 46.871094 C 69.804688 47.160156 69.804688 47.507812 69.65625 47.796875 C 69.507812 48.089844 69.226562 48.296875 68.90625 48.351562 L 68.738281 47.332031 L 69.582031 46.753906 L 69.59375 46.769531 C 69.621094 46.800781 69.640625 46.84375 69.660156 46.878906 C 69.824219 47.195312 70.039062 47.496094 70.304688 47.765625 C 70.355469 47.820312 70.40625 47.878906 70.445312 47.945312 C 71.125 49.039062 71.429688 50.054688 71.429688 50.980469 C 71.429688 51.683594 71.246094 52.3125 70.980469 52.824219 C 70.574219 53.59375 70.007812 54.105469 69.546875 54.433594 C 69.085938 54.765625 68.722656 54.917969 68.671875 54.941406 C 68.542969 54.992188 68.414062 55.019531 68.273438 55.019531 L 54.863281 55.019531 C 54.589844 55.019531 54.328125 54.910156 54.132812 54.71875 C 53.945312 54.527344 53.832031 54.261719 53.832031 53.992188 L 53.832031 40.578125 C 53.832031 40.441406 53.859375 40.308594 53.910156 40.179688 C 53.945312 40.113281 54.199219 39.488281 54.808594 38.820312 C 55.117188 38.488281 55.519531 38.140625 56.027344 37.875 C 56.539062 37.605469 57.167969 37.425781 57.871094 37.425781 C 58.796875 37.425781 59.816406 37.730469 60.910156 38.40625 C 60.972656 38.445312 61.039062 38.496094 61.09375 38.550781 C 61.355469 38.8125 61.652344 39.027344 61.972656 39.191406 C 62.027344 39.21875 62.089844 39.257812 62.136719 39.296875 L 62.152344 39.308594 L 61.515625 40.121094 L 60.539062 39.792969 L 60.539062 39.789062 C 60.632812 39.503906 60.847656 39.273438 61.125 39.164062 C 61.402344 39.046875 61.71875 39.058594 61.980469 39.195312 C 62.433594 39.421875 62.917969 39.546875 63.425781 39.546875 C 64.390625 39.546875 65.269531 39.117188 65.941406 38.371094 C 66.609375 37.625 67.035156 36.570312 67.035156 35.394531 C 67.035156 34.210938 66.609375 33.15625 65.941406 32.410156 C 65.269531 31.664062 64.390625 31.238281 63.425781 31.238281 C 62.917969 31.238281 62.433594 31.359375 61.980469 31.585938 C 61.710938 31.722656 61.382812 31.734375 61.105469 31.613281 C 60.824219 31.488281 60.609375 31.246094 60.527344 30.953125 L 60.527344 30.949219 L 61.515625 30.664062 L 62.195312 31.4375 L 62.183594 31.453125 C 62.117188 31.507812 62.046875 31.554688 61.96875 31.59375 C 61.652344 31.757812 61.355469 31.972656 61.085938 32.234375 C 61.035156 32.289062 60.972656 32.335938 60.910156 32.378906 C 59.816406 33.054688 58.796875 33.359375 57.871094 33.359375 C 57.167969 33.359375 56.539062 33.175781 56.027344 32.910156 C 55.257812 32.507812 54.746094 31.9375 54.417969 31.476562 C 54.089844 31.015625 53.9375 30.652344 53.910156 30.601562 C 53.863281 30.476562 53.832031 30.34375 53.832031 30.207031 L 53.832031 16.792969 C 53.832031 16.523438 53.945312 16.257812 54.132812 16.0625 C 54.328125 15.875 54.589844 15.761719 54.863281 15.761719 L 92.058594 15.761719 C 92.328125 15.761719 92.59375 15.875 92.785156 16.0625 C 92.976562 16.257812 93.089844 16.523438 93.089844 16.792969 L 93.089844 53.992188 C 93.089844 54.261719 92.976562 54.527344 92.785156 54.71875 C 92.59375 54.910156 92.328125 55.019531 92.058594 55.019531 L 78.644531 55.019531 C 78.511719 55.019531 78.378906 54.992188 78.25 54.941406 L 78.644531 53.992188 L 78.644531 52.960938 L 91.03125 52.960938 L 91.03125 17.824219 L 55.894531 17.824219 L 55.894531 30.207031 L 54.863281 30.207031 L 55.8125 29.8125 L 55.3125 30.015625 L 55.808594 29.804688 L 55.8125 29.8125 L 55.3125 30.015625 L 55.808594 29.804688 C 55.808594 29.804688 55.824219 29.828125 55.84375 29.875 C 55.925781 30.035156 56.15625 30.433594 56.507812 30.746094 C 56.679688 30.90625 56.878906 31.042969 57.101562 31.140625 C 57.320312 31.238281 57.570312 31.296875 57.871094 31.296875 C 58.339844 31.296875 58.972656 31.152344 59.828125 30.625 L 60.367188 31.5 L 59.644531 30.765625 C 60.054688 30.363281 60.523438 30.023438 61.039062 29.757812 L 61.503906 30.675781 L 60.828125 29.902344 L 60.839844 29.890625 C 61.105469 29.660156 61.472656 29.578125 61.808594 29.679688 C 62.144531 29.777344 62.410156 30.046875 62.503906 30.382812 L 62.507812 30.382812 L 61.519531 30.667969 L 61.054688 29.75 C 61.765625 29.386719 62.574219 29.175781 63.425781 29.175781 C 65.027344 29.175781 66.46875 29.90625 67.472656 31.039062 C 68.488281 32.171875 69.097656 33.707031 69.097656 35.394531 C 69.097656 37.074219 68.488281 38.613281 67.472656 39.746094 C 66.46875 40.878906 65.027344 41.609375 63.425781 41.605469 C 62.574219 41.605469 61.765625 41.394531 61.054688 41.035156 L 61.519531 40.113281 L 62.496094 40.441406 L 62.492188 40.441406 C 62.390625 40.757812 62.132812 41.007812 61.8125 41.105469 C 61.496094 41.199219 61.144531 41.132812 60.882812 40.925781 L 60.871094 40.917969 L 61.503906 40.105469 L 61.035156 41.027344 C 60.523438 40.761719 60.058594 40.421875 59.644531 40.015625 L 60.367188 39.28125 L 59.828125 40.160156 C 58.972656 39.632812 58.339844 39.484375 57.871094 39.484375 C 57.511719 39.484375 57.234375 39.570312 56.980469 39.699219 C 56.605469 39.894531 56.296875 40.21875 56.089844 40.507812 C 55.988281 40.648438 55.914062 40.777344 55.867188 40.863281 C 55.84375 40.910156 55.828125 40.941406 55.820312 40.964844 L 55.808594 40.980469 L 55.203125 40.71875 L 55.8125 40.972656 L 55.808594 40.980469 L 55.203125 40.71875 L 55.8125 40.972656 L 54.863281 40.578125 L 55.894531 40.578125 L 55.894531 52.960938 L 68.273438 52.960938 L 68.273438 53.992188 L 67.878906 53.039062 L 68.085938 53.542969 L 67.871094 53.042969 L 67.878906 53.039062 L 68.085938 53.542969 L 67.871094 53.042969 C 67.871094 53.042969 67.898438 53.03125 67.941406 53.003906 C 68.105469 52.925781 68.503906 52.695312 68.816406 52.347656 C 68.972656 52.171875 69.113281 51.976562 69.207031 51.753906 C 69.304688 51.53125 69.367188 51.285156 69.367188 50.980469 C 69.367188 50.511719 69.21875 49.878906 68.691406 49.027344 L 69.570312 48.488281 L 68.835938 49.207031 C 68.433594 48.796875 68.089844 48.328125 67.828125 47.820312 L 68.746094 47.347656 L 67.898438 47.929688 L 67.886719 47.917969 C 67.6875 47.628906 67.652344 47.253906 67.785156 46.929688 C 67.925781 46.609375 68.21875 46.378906 68.566406 46.320312 L 68.570312 46.320312 L 68.738281 47.332031 L 67.820312 47.796875 C 67.457031 47.085938 67.242188 46.277344 67.242188 45.425781 C 67.242188 43.828125 67.976562 42.386719 69.105469 41.375 C 70.238281 40.367188 71.777344 39.757812 73.460938 39.757812 C 75.144531 39.757812 76.679688 40.367188 77.8125 41.375 C 78.945312 42.386719 79.675781 43.828125 79.675781 45.425781 C 79.675781 46.277344 79.460938 47.085938 79.101562 47.796875 L 78.183594 47.332031 L 78.355469 46.320312 C 78.707031 46.378906 79.007812 46.617188 79.140625 46.949219 C 79.277344 47.285156 79.226562 47.664062 79.011719 47.945312 L 79 47.964844 L 78.175781 47.347656 L 79.09375 47.816406 C 78.832031 48.328125 78.488281 48.796875 78.085938 49.207031 L 77.351562 48.488281 L 78.226562 49.027344 C 77.703125 49.878906 77.554688 50.511719 77.554688 50.984375 C 77.554688 51.339844 77.636719 51.617188 77.769531 51.871094 C 77.960938 52.246094 78.289062 52.558594 78.570312 52.761719 C 78.714844 52.863281 78.84375 52.941406 78.933594 52.984375 C 78.976562 53.003906 79.011719 53.027344 79.027344 53.035156 L 79.050781 53.042969 L 78.785156 53.652344 L 79.042969 53.039062 L 79.050781 53.042969 L 78.785156 53.652344 L 79.042969 53.039062 L 78.644531 53.992188 L 78.644531 52.960938 L 78.644531 53.992188 " fill-opacity="1" fill-rule="nonzero"/></g><g fill="#000000" fill-opacity="1"><g transform="translate(104.991789, 83.899043)"><g><path d="M 45.65625 -45.328125 C 43.96875 -47.398438 41.910156 -49.007812 39.484375 -50.15625 C 37.054688 -51.300781 34.585938 -51.875 32.078125 -51.875 C 26.835938 -51.875 22.5 -49.800781 19.0625 -45.65625 C 15.625 -41.507812 13.90625 -36.492188 13.90625 -30.609375 C 13.90625 -24.828125 15.648438 -19.914062 19.140625 -15.875 C 22.640625 -11.832031 26.925781 -9.8125 32 -9.8125 C 34.613281 -9.8125 37.117188 -10.425781 39.515625 -11.65625 C 41.921875 -12.882812 43.96875 -14.453125 45.65625 -16.359375 L 45.65625 -2.046875 C 43.363281 -0.953125 41.085938 -0.0664062 38.828125 0.609375 C 36.566406 1.296875 34.179688 1.640625 31.671875 1.640625 C 26.210938 1.640625 21.203125 0.25 16.640625 -2.53125 C 12.085938 -5.3125 8.421875 -9.210938 5.640625 -14.234375 C 2.859375 -19.253906 1.46875 -24.628906 1.46875 -30.359375 C 1.46875 -36.359375 2.800781 -41.90625 5.46875 -47 C 8.144531 -52.101562 11.816406 -56.097656 16.484375 -58.984375 C 21.148438 -61.878906 26.289062 -63.328125 31.90625 -63.328125 C 34.363281 -63.328125 36.75 -63.015625 39.0625 -62.390625 C 41.382812 -61.765625 43.582031 -60.878906 45.65625 -59.734375 Z M 45.65625 -45.328125 "/></g></g></g><g fill="#000000" fill-opacity="1"><g transform="translate(154.171, 83.899043)"><g><path d="M 1.3125 -20.046875 C 1.3125 -26.378906 3.300781 -31.535156 7.28125 -35.515625 C 11.257812 -39.492188 16.304688 -41.484375 22.421875 -41.484375 C 28.640625 -41.484375 33.710938 -39.460938 37.640625 -35.421875 C 41.566406 -31.390625 43.53125 -26.265625 43.53125 -20.046875 C 43.53125 -13.773438 41.550781 -8.644531 37.59375 -4.65625 C 33.644531 -0.675781 28.585938 1.3125 22.421875 1.3125 C 16.253906 1.3125 11.191406 -0.691406 7.234375 -4.703125 C 3.285156 -8.710938 1.3125 -13.828125 1.3125 -20.046875 Z M 22.34375 -31.34375 C 19.78125 -31.34375 17.566406 -30.238281 15.703125 -28.03125 C 13.847656 -25.820312 12.921875 -23.160156 12.921875 -20.046875 C 12.921875 -17.046875 13.847656 -14.425781 15.703125 -12.1875 C 17.566406 -9.957031 19.804688 -8.84375 22.421875 -8.84375 C 25.148438 -8.84375 27.410156 -9.957031 29.203125 -12.1875 C 31.003906 -14.425781 31.90625 -17.046875 31.90625 -20.046875 C 31.90625 -22.992188 31.019531 -25.613281 29.25 -27.90625 C 27.476562 -30.195312 25.175781 -31.34375 22.34375 -31.34375 Z M 22.34375 -31.34375 "/></g></g></g><g fill="#000000" fill-opacity="1"><g transform="translate(199.013278, 83.899043)"><g><path d="M 40.09375 0 L 28.640625 0 L 28.640625 -23.234375 C 28.640625 -26.179688 28.203125 -28.429688 27.328125 -29.984375 C 26.453125 -31.546875 24.816406 -32.328125 22.421875 -32.328125 C 20.234375 -32.328125 18.539062 -31.46875 17.34375 -29.75 C 16.144531 -28.03125 15.546875 -25.039062 15.546875 -20.78125 L 15.546875 0 L 4.09375 0 L 4.09375 -40.171875 L 15.546875 -40.171875 L 15.546875 -36.5 L 15.71875 -36.5 C 16.914062 -38.300781 18.441406 -39.582031 20.296875 -40.34375 C 22.148438 -41.101562 24.113281 -41.484375 26.1875 -41.484375 C 30.820312 -41.484375 34.296875 -40.078125 36.609375 -37.265625 C 38.929688 -34.460938 40.09375 -30.332031 40.09375 -24.875 Z M 40.09375 0 "/></g></g></g><g fill="#000000" fill-opacity="1"><g transform="translate(243.200919, 83.899043)"><g><path d="M 40.09375 0 L 28.640625 0 L 28.640625 -23.234375 C 28.640625 -26.179688 28.203125 -28.429688 27.328125 -29.984375 C 26.453125 -31.546875 24.816406 -32.328125 22.421875 -32.328125 C 20.234375 -32.328125 18.539062 -31.46875 17.34375 -29.75 C 16.144531 -28.03125 15.546875 -25.039062 15.546875 -20.78125 L 15.546875 0 L 4.09375 0 L 4.09375 -40.171875 L 15.546875 -40.171875 L 15.546875 -36.5 L 15.71875 -36.5 C 16.914062 -38.300781 18.441406 -39.582031 20.296875 -40.34375 C 22.148438 -41.101562 24.113281 -41.484375 26.1875 -41.484375 C 30.820312 -41.484375 34.296875 -40.078125 36.609375 -37.265625 C 38.929688 -34.460938 40.09375 -30.332031 40.09375 -24.875 Z M 40.09375 0 "/></g></g></g><g fill="#000000" fill-opacity="1"><g transform="translate(287.38856, 83.899043)"><g><path d="M 13.34375 -18.25 C 13.34375 -14.914062 14.050781 -12.28125 15.46875 -10.34375 C 16.882812 -8.414062 18.820312 -7.453125 21.28125 -7.453125 C 23.1875 -7.453125 24.753906 -7.96875 25.984375 -9 C 27.210938 -10.039062 28.207031 -11.347656 28.96875 -12.921875 L 39.515625 -11.203125 C 38.097656 -7.117188 35.765625 -4.007812 32.515625 -1.875 C 29.273438 0.25 25.53125 1.3125 21.28125 1.3125 C 15.332031 1.3125 10.503906 -0.625 6.796875 -4.5 C 3.085938 -8.375 1.234375 -13.445312 1.234375 -19.71875 C 1.234375 -26.320312 2.976562 -31.597656 6.46875 -35.546875 C 9.957031 -39.503906 14.703125 -41.484375 20.703125 -41.484375 C 26.703125 -41.484375 31.378906 -39.546875 34.734375 -35.671875 C 38.085938 -31.804688 39.765625 -26.328125 39.765625 -19.234375 L 39.765625 -18.25 Z M 28.96875 -25.359375 C 28.582031 -27.867188 27.679688 -29.847656 26.265625 -31.296875 C 24.847656 -32.742188 23.1875 -33.46875 21.28125 -33.46875 C 19.476562 -33.46875 17.863281 -32.8125 16.4375 -31.5 C 15.019531 -30.195312 14.097656 -28.148438 13.671875 -25.359375 Z M 28.96875 -25.359375 "/></g></g></g><g fill="#000000" fill-opacity="1"><g transform="translate(328.384883, 83.899043)"><g><path d="M 31.421875 -27.90625 C 30.222656 -29.15625 28.953125 -30.117188 27.609375 -30.796875 C 26.273438 -31.484375 24.738281 -31.828125 23 -31.828125 C 20.101562 -31.828125 17.6875 -30.664062 15.75 -28.34375 C 13.8125 -26.03125 12.84375 -23.210938 12.84375 -19.890625 C 12.84375 -16.503906 13.835938 -13.734375 15.828125 -11.578125 C 17.828125 -9.421875 20.351562 -8.34375 23.40625 -8.34375 C 24.988281 -8.34375 26.460938 -8.695312 27.828125 -9.40625 C 29.191406 -10.113281 30.390625 -11.039062 31.421875 -12.1875 L 31.421875 -1.140625 C 29.785156 -0.210938 28.160156 0.425781 26.546875 0.78125 C 24.941406 1.132812 23.265625 1.3125 21.515625 1.3125 C 15.785156 1.3125 10.972656 -0.742188 7.078125 -4.859375 C 3.179688 -8.984375 1.234375 -14.019531 1.234375 -19.96875 C 1.234375 -23.84375 2.128906 -27.441406 3.921875 -30.765625 C 5.722656 -34.097656 8.234375 -36.71875 11.453125 -38.625 C 14.671875 -40.53125 18.21875 -41.484375 22.09375 -41.484375 C 23.625 -41.484375 25.191406 -41.28125 26.796875 -40.875 C 28.410156 -40.46875 29.953125 -39.828125 31.421875 -38.953125 Z M 31.421875 -27.90625 "/></g></g></g><g fill="#000000" fill-opacity="1"><g transform="translate(362.834881, 83.899043)"><g><path d="M 16.9375 -53.765625 L 16.9375 -40.171875 L 23.96875 -40.171875 L 23.96875 -30.515625 L 16.9375 -30.515625 L 16.9375 0 L 5.484375 0 L 5.484375 -30.515625 L 1.5625 -30.515625 L 1.5625 -40.171875 L 5.484375 -40.171875 L 5.484375 -53.765625 Z M 16.9375 -53.765625 "/></g></g></g></svg>