<svg xmlns="http://www.w3.org/2000/svg" xmlns:xlink="http://www.w3.org/1999/xlink" width="120" zoomAndPan="magnify" viewBox="0 0 90 89.999999" height="120" preserveAspectRatio="xMidYMid meet" version="1.0"><path fill="#e9e9e9" d="M 45.171875 65.917969 C 45.832031 65.917969 46.453125 66.078125 47.019531 66.363281 L 47.019531 66.359375 L 47.03125 66.371094 C 47.4375 66.574219 47.808594 66.847656 48.132812 67.167969 C 51.335938 69.148438 52.910156 66.9375 53.335938 66.160156 L 53.335938 52.933594 L 66.320312 52.933594 C 66.320312 52.933594 69.9375 51.429688 67.570312 47.609375 C 67.25 47.277344 66.984375 46.90625 66.777344 46.503906 L 66.765625 46.492188 C 66.484375 45.925781 66.320312 45.300781 66.320312 44.644531 C 66.320312 42.164062 68.566406 40.15625 71.339844 40.15625 C 74.113281 40.15625 76.359375 42.164062 76.359375 44.644531 C 76.359375 45.300781 76.195312 45.925781 75.910156 46.492188 L 75.914062 46.492188 L 75.90625 46.503906 C 75.699219 46.90625 75.425781 47.277344 75.105469 47.609375 C 72.742188 51.429688 76.359375 52.933594 76.359375 52.933594 L 89.339844 52.933594 L 89.339844 88.9375 L 53.335938 88.9375 L 53.335938 75.710938 C 52.910156 74.9375 51.335938 72.722656 48.132812 74.703125 C 47.808594 75.023438 47.4375 75.296875 47.03125 75.5 L 47.019531 75.511719 L 47.019531 75.507812 C 46.453125 75.792969 45.832031 75.957031 45.171875 75.957031 C 42.691406 75.957031 40.679688 73.707031 40.679688 70.9375 C 40.679688 68.164062 42.691406 65.917969 45.171875 65.917969 " fill-opacity="1" fill-rule="nonzero"/><path fill="#ffffff" d="M 45.171875 65.917969 L 45.171875 64.921875 C 45.996094 64.917969 46.777344 65.125 47.46875 65.476562 L 47.019531 66.363281 L 46.15625 65.871094 L 46.15625 65.867188 C 46.300781 65.613281 46.554688 65.4375 46.839844 65.382812 C 47.121094 65.328125 47.421875 65.40625 47.648438 65.589844 L 47.660156 65.601562 L 47.03125 66.371094 L 47.484375 65.484375 C 47.984375 65.738281 48.4375 66.070312 48.835938 66.460938 L 48.132812 67.167969 L 48.660156 66.324219 C 49.484375 66.832031 50.097656 66.972656 50.550781 66.976562 C 50.820312 66.972656 51.046875 66.925781 51.25 66.84375 C 51.554688 66.722656 51.8125 66.515625 52.019531 66.292969 C 52.230469 66.070312 52.382812 65.832031 52.46875 65.679688 L 53.335938 66.160156 L 52.34375 66.160156 L 52.34375 52.933594 C 52.34375 52.671875 52.449219 52.417969 52.632812 52.230469 C 52.820312 52.046875 53.074219 51.941406 53.335938 51.941406 L 66.320312 51.941406 L 66.320312 52.933594 L 65.9375 52.015625 L 66.140625 52.503906 L 65.929688 52.019531 L 65.9375 52.015625 L 66.140625 52.503906 L 65.929688 52.019531 C 65.929688 52.019531 65.957031 52.007812 66 51.984375 C 66.152344 51.90625 66.539062 51.679688 66.847656 51.347656 C 67 51.179688 67.128906 50.988281 67.226562 50.773438 C 67.320312 50.554688 67.375 50.320312 67.375 50.019531 C 67.375 49.566406 67.238281 48.957031 66.726562 48.128906 L 67.570312 47.609375 L 66.863281 48.304688 C 66.472656 47.90625 66.140625 47.457031 65.886719 46.957031 L 66.777344 46.503906 L 66.015625 47.144531 L 66.003906 47.132812 C 65.808594 46.898438 65.726562 46.589844 65.792969 46.289062 C 65.851562 45.992188 66.046875 45.742188 66.316406 45.601562 L 66.320312 45.601562 L 66.765625 46.492188 L 65.878906 46.941406 C 65.527344 46.25 65.320312 45.46875 65.324219 44.644531 C 65.320312 43.097656 66.03125 41.703125 67.125 40.726562 C 68.222656 39.75 69.710938 39.160156 71.339844 39.160156 C 72.964844 39.160156 74.457031 39.75 75.550781 40.726562 C 76.644531 41.703125 77.355469 43.097656 77.355469 44.644531 C 77.355469 45.46875 77.148438 46.25 76.800781 46.9375 L 75.910156 46.492188 L 76.460938 45.664062 L 76.464844 45.664062 C 76.699219 45.820312 76.847656 46.058594 76.898438 46.332031 C 76.941406 46.605469 76.867188 46.882812 76.703125 47.101562 L 76.695312 47.113281 L 75.90625 46.503906 L 76.792969 46.957031 C 76.535156 47.457031 76.203125 47.90625 75.816406 48.304688 L 75.105469 47.609375 L 75.953125 48.128906 C 75.441406 48.957031 75.300781 49.566406 75.300781 50.019531 C 75.300781 50.371094 75.382812 50.640625 75.507812 50.882812 C 75.699219 51.25 76.007812 51.550781 76.289062 51.75 C 76.425781 51.84375 76.550781 51.917969 76.636719 51.964844 C 76.675781 51.984375 76.714844 52.003906 76.730469 52.011719 L 76.75 52.019531 L 76.496094 52.609375 L 76.742188 52.015625 L 76.75 52.019531 L 76.496094 52.609375 L 76.742188 52.015625 L 76.359375 52.933594 L 76.359375 51.941406 L 89.339844 51.941406 C 89.605469 51.941406 89.859375 52.046875 90.046875 52.230469 C 90.230469 52.417969 90.335938 52.671875 90.335938 52.933594 L 90.335938 88.9375 C 90.335938 89.199219 90.230469 89.457031 90.046875 89.640625 C 89.859375 89.828125 89.605469 89.933594 89.339844 89.933594 L 53.335938 89.933594 C 53.074219 89.933594 52.820312 89.828125 52.632812 89.640625 C 52.449219 89.457031 52.34375 89.199219 52.34375 88.9375 L 52.34375 75.710938 L 53.335938 75.710938 L 52.46875 76.191406 C 52.355469 75.988281 52.121094 75.632812 51.796875 75.363281 C 51.632812 75.226562 51.449219 75.113281 51.25 75.027344 C 51.046875 74.949219 50.820312 74.898438 50.550781 74.898438 C 50.097656 74.898438 49.484375 75.039062 48.660156 75.550781 L 48.132812 74.703125 L 48.835938 75.410156 C 48.4375 75.800781 47.984375 76.136719 47.484375 76.386719 L 47.03125 75.5 L 47.6875 76.25 L 47.675781 76.257812 C 47.449219 76.457031 47.148438 76.542969 46.855469 76.492188 C 46.5625 76.441406 46.304688 76.261719 46.15625 76.003906 L 46.15625 76 L 47.019531 75.507812 L 47.46875 76.398438 C 46.78125 76.746094 45.996094 76.953125 45.171875 76.953125 C 43.621094 76.953125 42.230469 76.242188 41.253906 75.148438 C 40.273438 74.054688 39.683594 72.5625 39.683594 70.9375 C 39.683594 69.308594 40.273438 67.816406 41.253906 66.722656 C 42.230469 65.628906 43.625 64.917969 45.171875 64.921875 L 45.171875 66.914062 C 44.238281 66.914062 43.386719 67.328125 42.738281 68.050781 C 42.09375 68.769531 41.675781 69.789062 41.675781 70.9375 C 41.675781 72.078125 42.09375 73.101562 42.738281 73.824219 C 43.386719 74.542969 44.238281 74.960938 45.171875 74.960938 C 45.664062 74.960938 46.136719 74.839844 46.570312 74.617188 C 47.042969 74.378906 47.621094 74.554688 47.882812 75.011719 L 47.882812 75.015625 L 47.019531 75.511719 L 46.367188 74.761719 L 46.378906 74.75 C 46.441406 74.695312 46.503906 74.652344 46.582031 74.613281 C 46.890625 74.457031 47.179688 74.25 47.4375 73.992188 C 47.488281 73.941406 47.546875 73.894531 47.613281 73.855469 C 48.671875 73.203125 49.65625 72.902344 50.550781 72.90625 C 51.085938 72.902344 51.574219 73.011719 51.996094 73.183594 C 52.632812 73.445312 53.117188 73.839844 53.472656 74.214844 C 53.832031 74.597656 54.066406 74.96875 54.210938 75.226562 C 54.289062 75.375 54.332031 75.539062 54.332031 75.710938 L 54.332031 87.941406 L 88.347656 87.941406 L 88.347656 53.929688 L 76.359375 53.929688 C 76.226562 53.929688 76.101562 53.902344 75.976562 53.855469 C 75.914062 53.828125 75.308594 53.578125 74.660156 52.984375 C 74.335938 52.6875 74 52.300781 73.742188 51.804688 C 73.484375 51.3125 73.308594 50.703125 73.308594 50.019531 C 73.308594 49.128906 73.605469 48.140625 74.261719 47.082031 C 74.296875 47.023438 74.34375 46.964844 74.394531 46.90625 C 74.652344 46.648438 74.859375 46.363281 75.015625 46.050781 C 75.046875 46 75.082031 45.945312 75.117188 45.894531 L 75.128906 45.882812 L 75.914062 46.492188 L 75.363281 47.320312 L 75.359375 47.320312 C 74.9375 47.039062 74.792969 46.492188 75.019531 46.042969 C 75.246094 45.605469 75.363281 45.140625 75.363281 44.644531 C 75.363281 43.710938 74.945312 42.863281 74.226562 42.207031 C 73.503906 41.5625 72.484375 41.148438 71.339844 41.148438 C 70.195312 41.148438 69.175781 41.5625 68.457031 42.207031 C 67.734375 42.863281 67.316406 43.710938 67.316406 44.644531 C 67.316406 45.140625 67.4375 45.605469 67.65625 46.042969 C 67.773438 46.277344 67.796875 46.554688 67.710938 46.804688 C 67.632812 47.058594 67.453125 47.261719 67.214844 47.382812 L 67.210938 47.386719 L 66.765625 46.492188 L 67.527344 45.855469 L 67.535156 45.863281 C 67.582031 45.917969 67.628906 45.988281 67.664062 46.050781 C 67.820312 46.363281 68.03125 46.652344 68.28125 46.90625 C 68.332031 46.957031 68.378906 47.023438 68.417969 47.082031 C 69.078125 48.140625 69.371094 49.128906 69.371094 50.019531 C 69.371094 50.703125 69.195312 51.3125 68.9375 51.804688 C 68.546875 52.550781 67.992188 53.042969 67.546875 53.363281 C 67.101562 53.683594 66.75 53.832031 66.703125 53.855469 C 66.582031 53.902344 66.453125 53.929688 66.320312 53.929688 L 54.332031 53.929688 L 54.332031 66.160156 C 54.332031 66.332031 54.289062 66.496094 54.210938 66.644531 C 54.019531 66.984375 53.664062 67.535156 53.074219 68.035156 C 52.78125 68.285156 52.421875 68.515625 51.996094 68.691406 C 51.574219 68.863281 51.085938 68.96875 50.550781 68.96875 C 49.65625 68.96875 48.667969 68.671875 47.613281 68.015625 C 47.546875 67.976562 47.488281 67.929688 47.4375 67.878906 C 47.179688 67.625 46.886719 67.417969 46.582031 67.257812 C 46.515625 67.226562 46.460938 67.1875 46.40625 67.144531 L 46.394531 67.132812 L 47.019531 66.359375 L 47.882812 66.855469 L 47.882812 66.859375 C 47.621094 67.316406 47.042969 67.492188 46.570312 67.253906 C 46.136719 67.035156 45.664062 66.914062 45.171875 66.914062 L 45.171875 65.917969 " fill-opacity="1" fill-rule="nonzero"/><path fill="#e9e9e9" d="M 43.089844 8.839844 L 39.695312 21.625 C 39.910156 22.480469 40.863281 25.023438 44.460938 23.933594 C 44.863281 23.707031 45.289062 23.539062 45.738281 23.445312 L 45.75 23.441406 C 46.371094 23.308594 47.015625 23.3125 47.648438 23.484375 C 50.050781 24.121094 51.410156 26.808594 50.703125 29.488281 C 49.988281 32.167969 47.46875 33.820312 45.070312 33.1875 C 44.433594 33.015625 43.875 32.699219 43.402344 32.277344 L 43.398438 32.277344 L 43.390625 32.265625 C 43.054688 31.964844 42.765625 31.609375 42.53125 31.214844 C 39.949219 28.480469 37.859375 30.210938 37.246094 30.847656 L 33.847656 43.636719 L 21.296875 40.300781 C 21.296875 40.300781 17.417969 40.828125 18.722656 45.132812 C 18.949219 45.53125 19.117188 45.960938 19.207031 46.402344 L 19.214844 46.414062 C 19.34375 47.035156 19.34375 47.675781 19.171875 48.316406 C 18.535156 50.714844 15.847656 52.078125 13.167969 51.367188 C 10.488281 50.652344 8.835938 48.132812 9.46875 45.742188 C 9.640625 45.097656 9.957031 44.542969 10.375 44.066406 L 10.390625 44.054688 C 10.691406 43.722656 11.046875 43.429688 11.445312 43.195312 C 14.707031 40.109375 11.597656 37.726562 11.597656 37.726562 L -0.945312 34.394531 L 8.292969 -0.402344 L 43.089844 8.839844 " fill-opacity="1" fill-rule="nonzero"/><path fill="#ffffff" d="M 43.089844 8.839844 L 44.054688 9.09375 L 40.65625 21.882812 L 39.695312 21.625 L 40.660156 21.382812 C 40.722656 21.648438 40.902344 22.152344 41.234375 22.527344 C 41.398438 22.71875 41.59375 22.882812 41.839844 23.003906 C 42.089844 23.121094 42.402344 23.203125 42.835938 23.203125 C 43.195312 23.203125 43.636719 23.144531 44.175781 22.980469 L 44.460938 23.933594 L 43.972656 23.070312 C 44.453125 22.792969 44.976562 22.585938 45.527344 22.472656 L 45.738281 23.445312 L 45.347656 22.527344 L 45.359375 22.519531 C 45.664062 22.394531 46.019531 22.425781 46.296875 22.609375 C 46.578125 22.789062 46.746094 23.105469 46.746094 23.441406 L 45.75 23.441406 L 45.546875 22.46875 C 45.894531 22.394531 46.253906 22.351562 46.621094 22.351562 C 47.046875 22.351562 47.476562 22.410156 47.90625 22.519531 C 49.128906 22.847656 50.140625 23.605469 50.824219 24.589844 C 51.511719 25.578125 51.882812 26.789062 51.882812 28.058594 C 51.882812 28.613281 51.816406 29.175781 51.664062 29.742188 C 51.308594 31.089844 50.558594 32.226562 49.582031 33.03125 C 48.609375 33.835938 47.394531 34.316406 46.113281 34.316406 C 45.683594 34.316406 45.246094 34.261719 44.816406 34.144531 C 44.019531 33.933594 43.320312 33.539062 42.738281 33.023438 L 43.402344 32.277344 L 44.109375 32.984375 L 44.105469 32.984375 C 43.902344 33.1875 43.617188 33.292969 43.332031 33.273438 C 43.042969 33.253906 42.777344 33.105469 42.601562 32.875 L 42.59375 32.863281 L 43.390625 32.265625 L 42.726562 33.007812 C 42.308594 32.636719 41.957031 32.199219 41.675781 31.722656 L 42.53125 31.214844 L 41.808594 31.898438 C 41.339844 31.40625 40.925781 31.113281 40.574219 30.941406 C 40.21875 30.769531 39.929688 30.71875 39.660156 30.714844 C 39.28125 30.714844 38.941406 30.832031 38.640625 31.007812 C 38.339844 31.179688 38.097656 31.402344 37.960938 31.539062 L 37.246094 30.847656 L 38.207031 31.105469 L 34.808594 43.894531 C 34.667969 44.421875 34.121094 44.742188 33.59375 44.597656 L 21.042969 41.265625 L 21.296875 40.300781 L 21.433594 41.289062 C 21.363281 41.296875 20.78125 41.421875 20.3125 41.753906 C 20.074219 41.917969 19.867188 42.121094 19.714844 42.390625 C 19.5625 42.664062 19.449219 42.996094 19.449219 43.503906 C 19.449219 43.855469 19.511719 44.304688 19.671875 44.84375 L 18.722656 45.132812 L 19.585938 44.636719 C 19.863281 45.125 20.066406 45.644531 20.183594 46.191406 L 19.207031 46.402344 L 20.128906 46.011719 L 20.132812 46.027344 C 20.253906 46.308594 20.234375 46.628906 20.085938 46.894531 C 19.941406 47.160156 19.683594 47.34375 19.378906 47.398438 L 19.214844 46.414062 L 20.1875 46.210938 C 20.261719 46.5625 20.304688 46.921875 20.304688 47.285156 C 20.304688 47.710938 20.246094 48.144531 20.136719 48.570312 C 19.808594 49.796875 19.046875 50.804688 18.066406 51.488281 C 17.078125 52.175781 15.867188 52.554688 14.597656 52.554688 C 14.042969 52.554688 13.476562 52.480469 12.914062 52.328125 C 11.566406 51.972656 10.429688 51.222656 9.625 50.246094 C 8.820312 49.273438 8.339844 48.058594 8.339844 46.78125 C 8.339844 46.351562 8.394531 45.910156 8.507812 45.484375 C 8.71875 44.683594 9.117188 43.984375 9.632812 43.40625 L 10.375 44.066406 L 9.671875 44.773438 L 9.671875 44.769531 C 9.472656 44.570312 9.371094 44.296875 9.382812 44.015625 C 9.398438 43.734375 9.527344 43.472656 9.746094 43.296875 L 9.757812 43.285156 L 10.390625 44.054688 L 9.648438 43.390625 C 10.023438 42.976562 10.457031 42.621094 10.933594 42.339844 L 11.445312 43.195312 L 10.757812 42.476562 C 11.25 42.011719 11.542969 41.597656 11.714844 41.242188 C 11.886719 40.886719 11.9375 40.59375 11.941406 40.324219 C 11.941406 40.074219 11.886719 39.839844 11.800781 39.621094 C 11.671875 39.292969 11.460938 38.996094 11.28125 38.796875 C 11.1875 38.695312 11.109375 38.617188 11.054688 38.570312 L 10.996094 38.519531 L 10.984375 38.511719 L 11.234375 38.203125 L 10.992188 38.519531 L 10.984375 38.511719 L 11.234375 38.203125 L 10.992188 38.519531 L 11.597656 37.726562 L 11.34375 38.6875 L -1.207031 35.355469 C -1.460938 35.289062 -1.679688 35.117188 -1.8125 34.890625 C -1.941406 34.664062 -1.976562 34.394531 -1.910156 34.136719 L 7.332031 -0.65625 C 7.398438 -0.910156 7.570312 -1.132812 7.792969 -1.265625 C 8.019531 -1.394531 8.292969 -1.433594 8.550781 -1.367188 L 43.347656 7.875 C 43.878906 8.019531 44.191406 8.566406 44.050781 9.09375 L 43.089844 8.839844 L 42.835938 9.804688 L 9 0.8125 L 0.269531 33.6875 L 11.855469 36.765625 C 11.980469 36.796875 12.101562 36.855469 12.203125 36.9375 C 12.253906 36.976562 12.648438 37.28125 13.066406 37.84375 C 13.273438 38.128906 13.488281 38.472656 13.652344 38.886719 C 13.816406 39.304688 13.933594 39.792969 13.933594 40.324219 C 13.933594 40.886719 13.800781 41.5 13.507812 42.109375 C 13.210938 42.714844 12.761719 43.324219 12.128906 43.921875 C 12.074219 43.96875 12.011719 44.015625 11.949219 44.050781 C 11.636719 44.238281 11.359375 44.460938 11.128906 44.722656 C 11.089844 44.765625 11.0625 44.792969 11.019531 44.828125 L 11.007812 44.839844 L 10.375 44.066406 L 11.082031 43.363281 C 11.457031 43.738281 11.472656 44.335938 11.121094 44.730469 C 10.792969 45.09375 10.558594 45.511719 10.433594 45.992188 C 10.363281 46.257812 10.328125 46.519531 10.328125 46.78125 C 10.328125 47.550781 10.621094 48.324219 11.160156 48.980469 C 11.699219 49.628906 12.480469 50.15625 13.421875 50.40625 C 13.820312 50.511719 14.214844 50.5625 14.597656 50.5625 C 15.476562 50.5625 16.292969 50.300781 16.925781 49.859375 C 17.558594 49.410156 18.011719 48.800781 18.210938 48.058594 C 18.28125 47.804688 18.3125 47.546875 18.3125 47.285156 C 18.3125 47.0625 18.289062 46.84375 18.242188 46.621094 C 18.183594 46.355469 18.238281 46.078125 18.390625 45.855469 C 18.546875 45.628906 18.78125 45.476562 19.050781 45.433594 L 19.214844 46.414062 L 18.300781 46.800781 L 18.292969 46.789062 C 18.273438 46.730469 18.25 46.664062 18.238281 46.609375 C 18.164062 46.269531 18.039062 45.941406 17.859375 45.625 C 17.824219 45.5625 17.789062 45.484375 17.765625 45.417969 C 17.558594 44.722656 17.460938 44.085938 17.460938 43.503906 C 17.457031 42.632812 17.6875 41.878906 18.054688 41.289062 C 18.324219 40.851562 18.664062 40.507812 19.003906 40.246094 C 19.519531 39.847656 20.039062 39.628906 20.441406 39.492188 C 20.839844 39.367188 21.121094 39.324219 21.167969 39.316406 C 21.296875 39.296875 21.429688 39.304688 21.558594 39.34375 L 33.140625 42.417969 L 36.28125 30.59375 C 36.324219 30.429688 36.414062 30.285156 36.527344 30.160156 C 36.753906 29.925781 37.125 29.578125 37.652344 29.28125 C 38.167969 28.980469 38.851562 28.722656 39.660156 28.722656 C 40.222656 28.722656 40.832031 28.855469 41.441406 29.148438 C 42.050781 29.445312 42.65625 29.898438 43.257812 30.53125 C 43.304688 30.582031 43.347656 30.640625 43.382812 30.707031 C 43.574219 31.019531 43.796875 31.296875 44.058594 31.527344 C 44.101562 31.566406 44.152344 31.621094 44.1875 31.667969 L 44.195312 31.683594 L 43.398438 32.277344 L 42.699219 31.578125 L 42.699219 31.574219 C 43.074219 31.199219 43.671875 31.183594 44.066406 31.535156 C 44.429688 31.859375 44.847656 32.097656 45.332031 32.222656 L 45.328125 32.222656 C 45.59375 32.289062 45.855469 32.328125 46.113281 32.328125 C 46.886719 32.328125 47.660156 32.035156 48.3125 31.496094 C 48.964844 30.957031 49.488281 30.175781 49.738281 29.234375 C 49.847656 28.835938 49.894531 28.441406 49.894531 28.058594 C 49.894531 27.179688 49.636719 26.363281 49.191406 25.730469 C 48.746094 25.097656 48.136719 24.640625 47.394531 24.441406 C 47.136719 24.375 46.878906 24.34375 46.621094 24.34375 C 46.402344 24.34375 46.179688 24.367188 45.957031 24.414062 C 45.664062 24.476562 45.355469 24.402344 45.125 24.210938 C 44.890625 24.027344 44.753906 23.738281 44.753906 23.441406 L 45.75 23.441406 L 46.140625 24.355469 L 46.125 24.363281 C 46.070312 24.382812 46 24.402344 45.945312 24.417969 C 45.605469 24.492188 45.273438 24.617188 44.957031 24.796875 C 44.898438 24.832031 44.824219 24.867188 44.753906 24.890625 C 44.058594 25.097656 43.417969 25.195312 42.835938 25.195312 C 42.128906 25.195312 41.503906 25.046875 40.980469 24.796875 C 40.1875 24.414062 39.65625 23.820312 39.320312 23.277344 C 38.980469 22.722656 38.8125 22.203125 38.730469 21.867188 C 38.691406 21.703125 38.691406 21.53125 38.734375 21.371094 L 42.128906 8.585938 L 43.089844 8.839844 L 42.835938 9.804688 L 43.089844 8.839844 " fill-opacity="1" fill-rule="nonzero"/><path fill="#e9e9e9" d="M 30.757812 52.992188 C 30.757812 52.992188 34.371094 54.492188 32.007812 58.308594 C 31.6875 58.636719 31.417969 59.007812 31.210938 59.410156 L 31.203125 59.421875 C 30.921875 59.984375 30.757812 60.609375 30.757812 61.269531 C 30.757812 63.746094 33.003906 65.75 35.769531 65.75 C 38.539062 65.75 40.78125 63.746094 40.78125 61.269531 C 40.78125 60.609375 40.617188 59.984375 40.332031 59.421875 L 40.339844 59.421875 L 40.324219 59.410156 C 40.121094 59.007812 39.851562 58.636719 39.53125 58.308594 C 37.171875 54.492188 40.78125 52.992188 40.78125 52.992188 L 53.742188 52.992188 L 53.742188 65.949219 C 53.742188 65.949219 52.242188 69.5625 48.425781 67.199219 C 48.097656 66.878906 47.726562 66.613281 47.324219 66.40625 L 47.3125 66.398438 L 47.3125 66.402344 C 46.75 66.113281 46.128906 65.949219 45.464844 65.949219 C 42.988281 65.949219 40.984375 68.195312 40.984375 70.964844 C 40.984375 73.730469 42.988281 75.976562 45.464844 75.976562 C 46.128906 75.976562 46.75 75.8125 47.3125 75.527344 L 47.3125 75.53125 L 47.324219 75.523438 C 47.726562 75.316406 48.097656 75.046875 48.425781 74.726562 C 52.242188 72.363281 53.742188 75.976562 53.742188 75.976562 L 53.742188 88.9375 L 17.796875 88.9375 L 17.796875 52.992188 L 30.757812 52.992188 " fill-opacity="1" fill-rule="nonzero"/><path fill="#ffffff" d="M 30.757812 52.992188 L 31.140625 52.070312 C 31.203125 52.097656 31.808594 52.351562 32.457031 52.9375 C 32.78125 53.234375 33.117188 53.621094 33.371094 54.117188 C 33.632812 54.613281 33.808594 55.214844 33.804688 55.898438 C 33.804688 56.789062 33.511719 57.777344 32.855469 58.832031 C 32.816406 58.894531 32.769531 58.957031 32.722656 59.007812 C 32.464844 59.265625 32.253906 59.550781 32.101562 59.859375 C 32.066406 59.925781 32.03125 59.984375 31.984375 60.039062 L 31.976562 60.050781 L 31.203125 59.421875 L 31.519531 58.476562 C 31.792969 58.570312 32.015625 58.777344 32.128906 59.042969 C 32.234375 59.308594 32.222656 59.613281 32.09375 59.871094 C 31.875 60.308594 31.753906 60.769531 31.753906 61.269531 C 31.753906 62.199219 32.171875 63.046875 32.886719 63.691406 C 33.609375 64.34375 34.628906 64.757812 35.769531 64.757812 C 36.914062 64.757812 37.929688 64.34375 38.648438 63.691406 C 39.371094 63.046875 39.785156 62.199219 39.785156 61.269531 C 39.785156 60.773438 39.664062 60.308594 39.445312 59.871094 C 39.3125 59.601562 39.304688 59.28125 39.429688 59.007812 C 39.554688 58.730469 39.800781 58.527344 40.089844 58.457031 L 40.09375 58.453125 L 40.339844 59.421875 L 39.566406 60.050781 L 39.554688 60.039062 C 39.511719 59.984375 39.472656 59.925781 39.441406 59.863281 C 39.28125 59.550781 39.074219 59.265625 38.820312 59.007812 C 38.769531 58.957031 38.722656 58.894531 38.6875 58.832031 C 38.027344 57.777344 37.734375 56.789062 37.738281 55.898438 C 37.734375 55.214844 37.910156 54.613281 38.167969 54.117188 C 38.558594 53.375 39.109375 52.878906 39.554688 52.5625 C 40 52.238281 40.351562 52.089844 40.402344 52.070312 C 40.523438 52.019531 40.648438 51.996094 40.78125 51.996094 L 53.742188 51.996094 C 54.007812 51.996094 54.261719 52.097656 54.449219 52.285156 C 54.632812 52.46875 54.738281 52.726562 54.738281 52.992188 L 54.738281 65.949219 C 54.738281 66.082031 54.714844 66.210938 54.664062 66.332031 C 54.636719 66.402344 54.386719 67.003906 53.796875 67.652344 C 53.5 67.972656 53.113281 68.308594 52.617188 68.566406 C 52.125 68.824219 51.519531 69 50.835938 68.996094 C 49.945312 69 48.957031 68.707031 47.902344 68.050781 C 47.839844 68.011719 47.78125 67.964844 47.726562 67.914062 C 47.46875 67.660156 47.183594 67.453125 46.871094 67.292969 C 46.808594 67.261719 46.753906 67.226562 46.695312 67.175781 L 46.683594 67.167969 L 47.3125 66.398438 L 48.257812 66.710938 L 48.257812 66.714844 C 48.164062 66.984375 47.957031 67.210938 47.691406 67.320312 C 47.425781 67.429688 47.121094 67.417969 46.863281 67.289062 C 46.425781 67.066406 45.960938 66.949219 45.464844 66.945312 C 44.535156 66.949219 43.6875 67.363281 43.039062 68.085938 C 42.394531 68.804688 41.976562 69.820312 41.976562 70.964844 C 41.976562 72.105469 42.394531 73.125 43.039062 73.847656 C 43.6875 74.566406 44.535156 74.976562 45.464844 74.980469 C 45.960938 74.980469 46.425781 74.863281 46.863281 74.636719 C 47.128906 74.507812 47.441406 74.5 47.710938 74.613281 C 47.984375 74.734375 48.191406 74.96875 48.269531 75.253906 L 47.3125 75.53125 L 46.683594 74.757812 L 46.695312 74.75 C 46.753906 74.703125 46.808594 74.667969 46.871094 74.632812 C 47.179688 74.480469 47.46875 74.269531 47.726562 74.011719 C 47.78125 73.964844 47.839844 73.914062 47.902344 73.878906 C 48.957031 73.222656 49.945312 72.929688 50.835938 72.929688 C 51.519531 72.925781 52.125 73.101562 52.617188 73.363281 C 53.363281 73.75 53.855469 74.304688 54.171875 74.746094 C 54.496094 75.191406 54.644531 75.546875 54.664062 75.59375 C 54.714844 75.71875 54.738281 75.84375 54.738281 75.976562 L 54.738281 88.9375 C 54.738281 89.199219 54.632812 89.457031 54.449219 89.640625 C 54.261719 89.828125 54.007812 89.933594 53.742188 89.933594 L 17.796875 89.933594 C 17.535156 89.933594 17.277344 89.828125 17.09375 89.640625 C 16.90625 89.457031 16.804688 89.199219 16.804688 88.9375 L 16.804688 52.992188 C 16.804688 52.726562 16.90625 52.472656 17.09375 52.285156 C 17.277344 52.097656 17.535156 51.996094 17.796875 51.996094 L 30.757812 51.996094 C 30.890625 51.996094 31.015625 52.019531 31.140625 52.070312 L 30.757812 52.992188 L 30.757812 53.984375 L 18.792969 53.984375 L 18.792969 87.941406 L 52.75 87.941406 L 52.75 75.976562 L 53.742188 75.976562 L 52.824219 76.359375 L 53.316406 76.152344 L 52.828125 76.363281 L 52.824219 76.359375 L 53.316406 76.152344 L 52.828125 76.363281 C 52.828125 76.363281 52.816406 76.34375 52.796875 76.300781 C 52.714844 76.140625 52.492188 75.757812 52.15625 75.453125 C 51.992188 75.300781 51.796875 75.167969 51.582031 75.074219 C 51.367188 74.976562 51.132812 74.921875 50.835938 74.921875 C 50.386719 74.921875 49.773438 75.066406 48.949219 75.570312 L 48.425781 74.726562 L 49.125 75.433594 C 48.726562 75.824219 48.273438 76.15625 47.777344 76.40625 L 47.324219 75.523438 L 47.953125 76.296875 L 47.9375 76.304688 C 47.683594 76.515625 47.328125 76.582031 47.015625 76.480469 C 46.695312 76.382812 46.445312 76.125 46.355469 75.804688 L 46.355469 75.800781 L 47.3125 75.527344 L 47.757812 76.417969 C 47.070312 76.765625 46.289062 76.972656 45.464844 76.972656 C 43.921875 76.972656 42.527344 76.261719 41.554688 75.171875 C 40.578125 74.078125 39.988281 72.589844 39.988281 70.964844 C 39.988281 69.339844 40.578125 67.851562 41.554688 66.757812 C 42.527344 65.664062 43.921875 64.957031 45.464844 64.957031 C 46.289062 64.957031 47.070312 65.164062 47.761719 65.507812 L 47.3125 66.402344 L 46.371094 66.082031 C 46.472656 65.773438 46.71875 65.53125 47.035156 65.441406 C 47.347656 65.351562 47.6875 65.417969 47.9375 65.625 L 47.953125 65.636719 L 47.324219 66.40625 L 47.78125 65.519531 C 48.273438 65.773438 48.726562 66.101562 49.121094 66.492188 L 48.425781 67.199219 L 48.949219 66.355469 C 49.773438 66.867188 50.386719 67.007812 50.835938 67.007812 C 51.183594 67.007812 51.453125 66.925781 51.699219 66.800781 C 52.058594 66.613281 52.359375 66.296875 52.558594 66.023438 C 52.652344 65.882812 52.730469 65.761719 52.773438 65.675781 C 52.796875 65.632812 52.8125 65.601562 52.820312 65.582031 L 52.828125 65.566406 L 53.417969 65.816406 L 52.824219 65.570312 L 52.828125 65.566406 L 53.417969 65.816406 L 52.824219 65.570312 L 53.742188 65.949219 L 52.75 65.949219 L 52.75 53.988281 L 40.78125 53.988281 L 40.78125 52.992188 L 41.167969 53.910156 L 40.96875 53.433594 L 41.171875 53.90625 L 41.167969 53.910156 L 40.96875 53.433594 L 41.171875 53.90625 C 41.171875 53.90625 41.144531 53.917969 41.101562 53.9375 C 40.945312 54.019531 40.5625 54.242188 40.261719 54.574219 C 40.105469 54.742188 39.976562 54.933594 39.878906 55.148438 C 39.785156 55.367188 39.730469 55.601562 39.730469 55.898438 C 39.730469 56.351562 39.871094 56.960938 40.378906 57.785156 L 39.53125 58.308594 L 40.242188 57.613281 C 40.632812 58.007812 40.960938 58.460938 41.214844 58.957031 L 40.324219 59.410156 L 41.097656 58.78125 L 41.109375 58.796875 C 41.324219 59.058594 41.390625 59.414062 41.28125 59.734375 C 41.175781 60.058594 40.90625 60.304688 40.582031 60.390625 L 40.578125 60.390625 L 40.332031 59.421875 L 41.222656 58.976562 C 41.570312 59.664062 41.777344 60.445312 41.773438 61.269531 C 41.777344 62.8125 41.070312 64.207031 39.976562 65.179688 C 38.882812 66.15625 37.394531 66.742188 35.769531 66.746094 C 34.148438 66.742188 32.65625 66.15625 31.5625 65.179688 C 30.472656 64.207031 29.761719 62.8125 29.761719 61.269531 C 29.761719 60.445312 29.964844 59.664062 30.316406 58.976562 L 31.203125 59.421875 L 30.890625 60.367188 L 30.890625 60.363281 C 30.578125 60.261719 30.339844 60.011719 30.25 59.699219 C 30.15625 59.386719 30.226562 59.046875 30.433594 58.796875 L 30.441406 58.78125 L 31.210938 59.410156 L 30.324219 58.960938 C 30.578125 58.460938 30.910156 58.007812 31.300781 57.613281 L 32.007812 58.308594 L 31.164062 57.785156 C 31.675781 56.960938 31.8125 56.351562 31.8125 55.898438 C 31.8125 55.550781 31.734375 55.28125 31.605469 55.039062 C 31.417969 54.675781 31.105469 54.371094 30.824219 54.175781 C 30.691406 54.078125 30.5625 54.007812 30.480469 53.960938 C 30.441406 53.9375 30.40625 53.921875 30.386719 53.914062 L 30.371094 53.90625 L 30.617188 53.324219 L 30.375 53.910156 L 30.371094 53.90625 L 30.617188 53.324219 L 30.375 53.910156 L 30.757812 52.992188 L 30.757812 53.988281 L 30.757812 52.992188 " fill-opacity="1" fill-rule="nonzero"/><path fill="#e9e9e9" d="M 76.351562 52.933594 C 76.351562 52.933594 72.738281 51.433594 75.101562 47.617188 C 75.417969 47.285156 75.691406 46.917969 75.898438 46.515625 L 75.90625 46.5 C 76.1875 45.941406 76.351562 45.316406 76.351562 44.65625 C 76.351562 42.179688 74.105469 40.175781 71.339844 40.175781 C 68.570312 40.175781 66.324219 42.179688 66.324219 44.65625 C 66.324219 45.316406 66.488281 45.941406 66.777344 46.5 L 66.785156 46.515625 C 66.988281 46.917969 67.257812 47.285156 67.578125 47.617188 C 69.941406 51.433594 66.324219 52.933594 66.324219 52.933594 L 53.367188 52.933594 L 53.367188 39.972656 C 53.367188 39.972656 54.867188 36.359375 58.683594 38.722656 C 59.011719 39.042969 59.382812 39.308594 59.785156 39.515625 L 59.796875 39.53125 L 59.800781 39.523438 C 60.359375 39.808594 60.980469 39.972656 61.644531 39.972656 C 64.121094 39.972656 66.125 37.730469 66.125 34.960938 C 66.125 32.191406 64.121094 29.949219 61.644531 29.949219 C 60.980469 29.949219 60.359375 30.113281 59.800781 30.394531 L 59.796875 30.390625 L 59.785156 30.402344 C 59.382812 30.605469 59.011719 30.878906 58.683594 31.199219 C 54.867188 33.5625 53.367188 29.949219 53.367188 29.949219 L 53.367188 16.984375 L 89.316406 16.984375 L 89.316406 52.933594 L 76.351562 52.933594 " fill-opacity="1" fill-rule="nonzero"/><path fill="#ffffff" d="M 76.351562 52.933594 L 75.96875 53.855469 C 75.90625 53.828125 75.300781 53.578125 74.652344 52.988281 C 74.332031 52.6875 73.996094 52.300781 73.738281 51.808594 C 73.480469 51.316406 73.300781 50.707031 73.304688 50.027344 C 73.304688 49.132812 73.601562 48.148438 74.253906 47.09375 C 74.289062 47.03125 74.339844 46.972656 74.386719 46.917969 C 74.648438 46.660156 74.855469 46.371094 75.007812 46.0625 C 75.039062 46.011719 75.0625 45.972656 75.097656 45.921875 L 75.109375 45.90625 L 75.90625 46.5 L 75.742188 47.484375 L 75.738281 47.484375 C 75.425781 47.433594 75.15625 47.234375 75.015625 46.949219 C 74.875 46.667969 74.875 46.332031 75.011719 46.054688 C 75.234375 45.617188 75.355469 45.152344 75.355469 44.65625 C 75.355469 43.726562 74.941406 42.878906 74.21875 42.230469 C 73.5 41.582031 72.480469 41.167969 71.339844 41.167969 C 70.195312 41.167969 69.175781 41.582031 68.460938 42.230469 C 67.738281 42.878906 67.324219 43.726562 67.320312 44.65625 C 67.320312 45.152344 67.445312 45.617188 67.664062 46.054688 C 67.808594 46.332031 67.808594 46.667969 67.664062 46.949219 C 67.519531 47.234375 67.25 47.433594 66.9375 47.484375 L 66.777344 46.5 L 67.589844 45.941406 L 67.605469 45.957031 C 67.628906 45.988281 67.648438 46.027344 67.667969 46.0625 C 67.828125 46.371094 68.035156 46.660156 68.289062 46.917969 C 68.339844 46.972656 68.386719 47.03125 68.421875 47.09375 C 69.082031 48.148438 69.375 49.132812 69.375 50.023438 C 69.375 50.707031 69.199219 51.316406 68.941406 51.808594 C 68.550781 52.554688 68 53.046875 67.554688 53.363281 C 67.109375 53.683594 66.757812 53.832031 66.710938 53.855469 C 66.589844 53.902344 66.460938 53.929688 66.324219 53.929688 L 53.367188 53.929688 C 53.101562 53.929688 52.847656 53.824219 52.660156 53.640625 C 52.476562 53.453125 52.371094 53.199219 52.371094 52.933594 L 52.371094 39.972656 C 52.371094 39.839844 52.394531 39.710938 52.445312 39.589844 C 52.476562 39.523438 52.722656 38.921875 53.3125 38.273438 C 53.613281 37.953125 54 37.617188 54.492188 37.359375 C 54.984375 37.101562 55.59375 36.925781 56.273438 36.925781 C 57.167969 36.925781 58.152344 37.21875 59.210938 37.871094 C 59.269531 37.914062 59.332031 37.960938 59.386719 38.011719 C 59.640625 38.265625 59.925781 38.472656 60.238281 38.632812 C 60.289062 38.65625 60.347656 38.695312 60.398438 38.734375 L 60.410156 38.746094 L 59.796875 39.53125 L 58.851562 39.214844 L 58.851562 39.210938 C 58.945312 38.9375 59.152344 38.714844 59.417969 38.605469 C 59.683594 38.496094 59.992188 38.507812 60.246094 38.636719 C 60.683594 38.855469 61.148438 38.976562 61.644531 38.976562 C 62.574219 38.976562 63.421875 38.5625 64.070312 37.839844 C 64.71875 37.121094 65.132812 36.101562 65.132812 34.960938 C 65.132812 33.820312 64.71875 32.800781 64.070312 32.078125 C 63.421875 31.359375 62.574219 30.945312 61.644531 30.945312 C 61.148438 30.945312 60.683594 31.066406 60.246094 31.285156 C 59.984375 31.414062 59.667969 31.425781 59.398438 31.308594 C 59.125 31.1875 58.917969 30.953125 58.839844 30.671875 L 58.839844 30.667969 L 59.796875 30.390625 L 60.453125 31.140625 L 60.441406 31.152344 C 60.378906 31.207031 60.308594 31.25 60.234375 31.292969 C 59.925781 31.445312 59.640625 31.65625 59.382812 31.910156 C 59.328125 31.960938 59.269531 32.007812 59.210938 32.046875 C 58.152344 32.699219 57.167969 32.996094 56.273438 32.996094 C 55.59375 32.996094 54.984375 32.820312 54.492188 32.5625 C 53.746094 32.171875 53.253906 31.621094 52.9375 31.175781 C 52.617188 30.730469 52.46875 30.378906 52.445312 30.332031 C 52.398438 30.207031 52.371094 30.082031 52.371094 29.949219 L 52.371094 16.984375 C 52.371094 16.726562 52.476562 16.46875 52.660156 16.28125 C 52.847656 16.097656 53.101562 15.992188 53.367188 15.992188 L 89.316406 15.992188 C 89.574219 15.992188 89.832031 16.097656 90.015625 16.28125 C 90.203125 16.46875 90.308594 16.726562 90.308594 16.984375 L 90.308594 52.933594 C 90.308594 53.199219 90.203125 53.453125 90.015625 53.640625 C 89.832031 53.824219 89.574219 53.929688 89.316406 53.929688 L 76.351562 53.929688 C 76.21875 53.929688 76.09375 53.902344 75.96875 53.855469 L 76.351562 52.933594 L 76.351562 51.941406 L 88.320312 51.941406 L 88.320312 17.980469 L 54.359375 17.980469 L 54.359375 29.949219 L 53.367188 29.949219 L 54.285156 29.566406 L 53.800781 29.765625 L 54.28125 29.558594 L 54.285156 29.566406 L 53.800781 29.765625 L 54.28125 29.558594 C 54.28125 29.558594 54.292969 29.582031 54.3125 29.628906 C 54.394531 29.78125 54.617188 30.167969 54.953125 30.472656 C 55.121094 30.625 55.3125 30.757812 55.527344 30.855469 C 55.742188 30.945312 55.980469 31.003906 56.273438 31.003906 C 56.726562 31.003906 57.339844 30.863281 58.164062 30.351562 L 58.683594 31.199219 L 57.988281 30.492188 C 58.382812 30.101562 58.835938 29.769531 59.332031 29.515625 L 59.785156 30.402344 L 59.132812 29.65625 L 59.144531 29.644531 C 59.398438 29.421875 59.753906 29.339844 60.078125 29.441406 C 60.40625 29.535156 60.660156 29.792969 60.75 30.121094 L 60.753906 30.121094 L 59.800781 30.394531 L 59.351562 29.507812 C 60.039062 29.15625 60.820312 28.953125 61.644531 28.953125 C 63.1875 28.953125 64.582031 29.660156 65.554688 30.753906 C 66.53125 31.847656 67.121094 33.335938 67.121094 34.960938 C 67.121094 36.585938 66.53125 38.070312 65.554688 39.167969 C 64.582031 40.261719 63.1875 40.96875 61.644531 40.964844 C 60.820312 40.964844 60.039062 40.761719 59.351562 40.414062 L 59.800781 39.523438 L 60.742188 39.839844 L 60.738281 39.839844 C 60.640625 40.148438 60.394531 40.390625 60.082031 40.480469 C 59.777344 40.574219 59.4375 40.507812 59.183594 40.308594 L 59.171875 40.300781 L 59.785156 39.515625 L 59.328125 40.40625 C 58.835938 40.152344 58.386719 39.820312 57.988281 39.429688 L 58.683594 38.722656 L 58.164062 39.570312 C 57.339844 39.058594 56.726562 38.917969 56.273438 38.917969 C 55.925781 38.917969 55.660156 39 55.414062 39.125 C 55.050781 39.308594 54.75 39.625 54.550781 39.902344 C 54.453125 40.039062 54.382812 40.167969 54.335938 40.25 C 54.3125 40.292969 54.296875 40.324219 54.289062 40.34375 L 54.28125 40.363281 L 53.695312 40.109375 L 54.285156 40.355469 L 54.28125 40.363281 L 53.695312 40.109375 L 54.285156 40.355469 L 53.367188 39.972656 L 54.359375 39.972656 L 54.359375 51.941406 L 66.324219 51.941406 L 66.324219 52.933594 L 65.941406 52.015625 L 66.144531 52.5 L 65.9375 52.019531 L 65.941406 52.015625 L 66.144531 52.5 L 65.9375 52.019531 C 65.9375 52.019531 65.964844 52.007812 66.007812 51.984375 C 66.164062 51.90625 66.546875 51.683594 66.851562 51.347656 C 67.003906 51.179688 67.136719 50.988281 67.230469 50.773438 C 67.324219 50.558594 67.382812 50.320312 67.382812 50.023438 C 67.382812 49.574219 67.242188 48.960938 66.730469 48.136719 L 67.578125 47.617188 L 66.871094 48.3125 C 66.480469 47.914062 66.148438 47.464844 65.894531 46.972656 L 66.785156 46.515625 L 65.964844 47.078125 L 65.953125 47.066406 C 65.761719 46.789062 65.722656 46.425781 65.855469 46.109375 C 65.992188 45.800781 66.273438 45.578125 66.609375 45.523438 L 66.613281 45.523438 L 66.777344 46.5 L 65.886719 46.949219 C 65.539062 46.261719 65.332031 45.480469 65.332031 44.65625 C 65.332031 43.113281 66.039062 41.71875 67.128906 40.742188 C 68.226562 39.769531 69.714844 39.179688 71.339844 39.179688 C 72.964844 39.179688 74.453125 39.769531 75.546875 40.742188 C 76.640625 41.71875 77.347656 43.113281 77.347656 44.65625 C 77.347656 45.480469 77.140625 46.261719 76.792969 46.949219 L 75.90625 46.5 L 76.070312 45.523438 C 76.410156 45.578125 76.703125 45.808594 76.828125 46.128906 C 76.960938 46.453125 76.914062 46.820312 76.707031 47.09375 L 76.695312 47.109375 L 75.898438 46.515625 L 76.785156 46.96875 C 76.53125 47.464844 76.199219 47.914062 75.808594 48.3125 L 75.101562 47.617188 L 75.945312 48.136719 C 75.4375 48.960938 75.296875 49.574219 75.296875 50.027344 C 75.296875 50.375 75.375 50.640625 75.503906 50.890625 C 75.691406 51.25 76.003906 51.550781 76.28125 51.75 C 76.417969 51.84375 76.542969 51.921875 76.628906 51.964844 C 76.667969 51.984375 76.707031 52.003906 76.722656 52.011719 L 76.742188 52.019531 L 76.488281 52.609375 L 76.734375 52.015625 L 76.742188 52.019531 L 76.488281 52.609375 L 76.734375 52.015625 L 76.351562 52.933594 L 76.351562 51.941406 L 76.351562 52.933594 " fill-opacity="1" fill-rule="nonzero"/></svg>